<svg width="312" height="129" viewBox="0 0 312 129" fill="none" xmlns="http://www.w3.org/2000/svg">
<rect width="312" height="128.412" rx="19.2618" fill="#E1232E"/>
<path d="M287.106 63.6618H277.284C277.284 51.4356 267.714 41.4444 256.004 41.4444C246.686 41.4444 238.501 47.7546 235.731 56.9571C235.102 59.192 234.724 61.4269 234.724 63.6618V96.2648H234.472C229.183 96.2648 224.902 91.7951 224.902 86.2736V63.6618H225.028C225.028 54.7222 228.554 46.1771 234.85 39.9983C240.642 34.3453 248.197 31.1902 256.13 31.1902C273.255 31.1902 287.106 45.7827 287.106 63.6618Z" fill="white"/>
<path d="M288.063 97.0867L274.153 97.2218L270.739 93.574L263.151 85.4678L252.655 74.2543H266.565L288.063 97.0867Z" fill="white"/>
<path d="M195.236 55.8845V76.1683H175.764C173.767 76.1683 172.269 74.478 172.269 72.5276V55.8845C172.269 53.8041 173.892 52.2438 175.764 52.2438H191.616C193.738 52.2438 195.236 53.8041 195.236 55.8845Z" fill="white"/>
<path d="M198.745 86.1421H168.76C165.059 86.1421 162.125 83.1184 162.125 79.306V48.2805C162.125 44.468 165.059 41.4444 168.76 41.4444H198.745C202.445 41.4444 205.38 44.468 205.38 48.2805V79.1745L215.333 89.4287V41.1814C215.333 35.66 210.994 31.1902 205.635 31.1902H161.87C156.51 31.1902 152.172 35.66 152.172 41.1814V86.2736C152.172 91.7951 156.51 96.2648 161.87 96.2648H208.698L198.745 86.1421Z" fill="white"/>
<path d="M78.4845 97.2218H64.5628L35.4537 66.4692V97.2218H23.9367V31.1902H35.4537V60.6115L63.2972 31.1902H77.0924L46.7177 62.8747L78.4845 97.2218Z" fill="white"/>
<path d="M130.408 31.1902H141.645V97.2218H130.408V68.4661H98.3354V97.0887H87.0975V31.1902H98.3354V58.7477H130.408V31.1902Z" fill="white"/>
</svg>
