<svg width="442" height="622" viewBox="0 0 442 622" fill="none" xmlns="http://www.w3.org/2000/svg">
<g filter="url(#filter0_d_322_2)">
<path d="M421 21H21V601H421V21Z" fill="white"/>
<path d="M421 21H21V601H421V21Z" fill="white"/>
<path fill-rule="evenodd" clip-rule="evenodd" d="M21 21H421V90V90.6V123.5L388.1 90.6H21V21Z" fill="#E21A1A"/>
<path d="M233.525 53.8332V60.4999H226.972C226.316 60.4999 225.825 59.9999 225.825 59.3332V53.8332C225.825 53.1665 226.316 52.6665 226.972 52.6665H232.215C233.034 52.4999 233.525 53.1665 233.525 53.8332Z" fill="white"/>
<path d="M264 56.5H260.723C260.723 52.5 257.61 49.3333 253.678 49.3333C250.565 49.3333 247.944 51.3333 246.96 54.3333C246.797 55 246.633 55.8333 246.633 56.5V67H246.469C244.667 67 243.356 65.5 243.356 63.8333V56.5C243.356 53.6667 244.503 50.8333 246.633 48.8333C248.599 47 251.057 46 253.678 46C259.412 46 264 50.6667 264 56.5Z" fill="white"/>
<path d="M264 66.9999H259.412L258.265 65.8333L255.808 63.3333L252.367 59.8333H256.955L264 66.9999Z" fill="white"/>
<path d="M234.672 63.6667H224.842C223.695 63.6667 222.712 62.6667 222.712 61.5V51.5C222.712 50.3333 223.695 49.3333 224.842 49.3333H234.672C235.819 49.3333 236.802 50.3333 236.802 51.5V61.5L240.079 64.8333V49.1667C240.079 47.3333 238.604 46 236.966 46H222.712C220.909 46 219.599 47.5 219.599 49.1667V63.6667C219.599 65.5 221.073 66.8333 222.712 66.8333H237.949L234.672 63.6667Z" fill="white"/>
<path d="M194.859 67H190.271L180.768 57.1667V67H177V46H180.768V55.3333L189.944 46H194.367L184.537 56L194.859 67Z" fill="white"/>
<path d="M212.062 46H215.667V67H212.062V57.8333H201.576V67H197.808V46H201.576V54.8333H212.062V46Z" fill="white"/>
<path d="M84.596 138.136C83.4627 138.136 82.4767 137.892 81.638 137.405C80.7993 136.906 80.1533 136.198 79.7 135.28C79.258 134.351 79.037 133.257 79.037 131.999C79.037 130.741 79.258 129.653 79.7 128.735C80.1533 127.817 80.7993 127.114 81.638 126.627C82.4767 126.128 83.4627 125.879 84.596 125.879C85.4233 125.879 86.1827 126.009 86.874 126.27C87.5653 126.519 88.166 126.893 88.676 127.392L88.149 128.463C87.571 127.976 87.0043 127.624 86.449 127.409C85.8937 127.194 85.2817 127.086 84.613 127.086C83.2983 127.086 82.2783 127.517 81.553 128.378C80.839 129.228 80.482 130.435 80.482 131.999C80.482 133.574 80.839 134.793 81.553 135.654C82.2783 136.504 83.2983 136.929 84.613 136.929C85.2817 136.929 85.8937 136.821 86.449 136.606C87.0043 136.391 87.571 136.039 88.149 135.552L88.676 136.623C88.166 137.122 87.5653 137.501 86.874 137.762C86.1827 138.011 85.4233 138.136 84.596 138.136ZM93.7589 138.119C92.9769 138.119 92.2855 137.943 91.6849 137.592C91.0955 137.241 90.6365 136.742 90.3079 136.096C89.9905 135.439 89.8319 134.679 89.8319 133.818C89.8319 132.957 89.9905 132.203 90.3079 131.557C90.6365 130.9 91.0955 130.395 91.6849 130.044C92.2855 129.693 92.9769 129.517 93.7589 129.517C94.5409 129.517 95.2322 129.693 95.8329 130.044C96.4335 130.395 96.8925 130.9 97.2099 131.557C97.5385 132.203 97.7029 132.957 97.7029 133.818C97.7029 134.679 97.5385 135.439 97.2099 136.096C96.8925 136.742 96.4335 137.241 95.8329 137.592C95.2322 137.943 94.5409 138.119 93.7589 138.119ZM93.7589 136.98C94.5749 136.98 95.1982 136.714 95.6289 136.181C96.0709 135.637 96.2919 134.849 96.2919 133.818C96.2919 132.809 96.0709 132.033 95.6289 131.489C95.1869 130.934 94.5635 130.656 93.7589 130.656C92.9542 130.656 92.3309 130.934 91.8889 131.489C91.4469 132.033 91.2259 132.809 91.2259 133.818C91.2259 134.838 91.4412 135.62 91.8719 136.164C92.3139 136.708 92.9429 136.98 93.7589 136.98ZM108.68 129.517C110.516 129.517 111.434 130.611 111.434 132.798V138H110.057V132.866C110.057 132.107 109.921 131.551 109.649 131.2C109.388 130.849 108.963 130.673 108.374 130.673C107.682 130.673 107.138 130.905 106.742 131.37C106.345 131.835 106.147 132.469 106.147 133.274V138H104.77V132.866C104.77 132.095 104.634 131.54 104.362 131.2C104.09 130.849 103.659 130.673 103.07 130.673C102.378 130.673 101.834 130.905 101.438 131.37C101.041 131.835 100.843 132.469 100.843 133.274V138H99.4656V129.721H100.826V131.03C101.075 130.543 101.421 130.169 101.863 129.908C102.305 129.647 102.815 129.517 103.393 129.517C104.673 129.517 105.518 130.061 105.926 131.149C106.164 130.639 106.526 130.242 107.014 129.959C107.501 129.664 108.056 129.517 108.68 129.517ZM117.818 129.517C118.543 129.517 119.184 129.698 119.739 130.061C120.294 130.424 120.725 130.934 121.031 131.591C121.337 132.237 121.49 132.991 121.49 133.852C121.49 134.713 121.337 135.467 121.031 136.113C120.725 136.748 120.294 137.241 119.739 137.592C119.195 137.943 118.555 138.119 117.818 138.119C117.172 138.119 116.605 137.977 116.118 137.694C115.642 137.411 115.279 137.008 115.03 136.487V141.06H113.653V129.721H115.03V131.149C115.279 130.628 115.642 130.225 116.118 129.942C116.605 129.659 117.172 129.517 117.818 129.517ZM117.546 136.98C118.351 136.98 118.974 136.708 119.416 136.164C119.858 135.62 120.079 134.849 120.079 133.852C120.079 132.855 119.858 132.078 119.416 131.523C118.974 130.956 118.351 130.673 117.546 130.673C116.741 130.673 116.118 130.945 115.676 131.489C115.245 132.033 115.03 132.809 115.03 133.818C115.03 134.827 115.245 135.609 115.676 136.164C116.118 136.708 116.741 136.98 117.546 136.98ZM126.625 129.517C127.679 129.517 128.461 129.789 128.971 130.333C129.492 130.866 129.753 131.682 129.753 132.781V138H128.41V136.589C128.194 137.076 127.866 137.456 127.424 137.728C126.982 137.989 126.472 138.119 125.894 138.119C125.361 138.119 124.868 138.011 124.415 137.796C123.973 137.581 123.621 137.28 123.361 136.895C123.1 136.51 122.97 136.085 122.97 135.62C122.97 134.997 123.128 134.515 123.446 134.175C123.763 133.824 124.284 133.574 125.01 133.427C125.735 133.268 126.744 133.189 128.036 133.189H128.41V132.628C128.41 131.937 128.268 131.438 127.985 131.132C127.701 130.815 127.242 130.656 126.608 130.656C125.656 130.656 124.709 130.951 123.769 131.54L123.31 130.537C123.74 130.231 124.256 129.987 124.857 129.806C125.469 129.613 126.058 129.517 126.625 129.517ZM126.081 137.031C126.761 137.031 127.316 136.804 127.747 136.351C128.189 135.886 128.41 135.291 128.41 134.566V134.073H128.104C127.106 134.073 126.347 134.118 125.826 134.209C125.304 134.288 124.93 134.43 124.704 134.634C124.488 134.827 124.381 135.116 124.381 135.501C124.381 135.943 124.539 136.311 124.857 136.606C125.185 136.889 125.593 137.031 126.081 137.031ZM136.149 129.517C138.133 129.517 139.124 130.611 139.124 132.798V138H137.747V132.883C137.747 132.112 137.594 131.551 137.288 131.2C136.994 130.849 136.518 130.673 135.86 130.673C135.101 130.673 134.495 130.905 134.041 131.37C133.588 131.835 133.361 132.464 133.361 133.257V138H131.984V129.721H133.344V131.081C133.616 130.571 133.996 130.186 134.483 129.925C134.971 129.653 135.526 129.517 136.149 129.517ZM147.29 129.738H148.667L143.771 141.06H142.36L143.754 137.898L140.252 129.738H141.714L144.485 136.504L147.29 129.738ZM162.395 126.015H163.704V138H162.633L155.408 128.361V138H154.099V126.015H155.17L162.395 135.654V126.015ZM169.539 129.517C170.593 129.517 171.375 129.789 171.885 130.333C172.406 130.866 172.667 131.682 172.667 132.781V138H171.324V136.589C171.109 137.076 170.78 137.456 170.338 137.728C169.896 137.989 169.386 138.119 168.808 138.119C168.275 138.119 167.782 138.011 167.329 137.796C166.887 137.581 166.536 137.28 166.275 136.895C166.014 136.51 165.884 136.085 165.884 135.62C165.884 134.997 166.043 134.515 166.36 134.175C166.677 133.824 167.199 133.574 167.924 133.427C168.649 133.268 169.658 133.189 170.95 133.189H171.324V132.628C171.324 131.937 171.182 131.438 170.899 131.132C170.616 130.815 170.157 130.656 169.522 130.656C168.57 130.656 167.624 130.951 166.683 131.54L166.224 130.537C166.655 130.231 167.17 129.987 167.771 129.806C168.383 129.613 168.972 129.517 169.539 129.517ZM168.995 137.031C169.675 137.031 170.23 136.804 170.661 136.351C171.103 135.886 171.324 135.291 171.324 134.566V134.073H171.018C170.021 134.073 169.261 134.118 168.74 134.209C168.219 134.288 167.845 134.43 167.618 134.634C167.403 134.827 167.295 135.116 167.295 135.501C167.295 135.943 167.454 136.311 167.771 136.606C168.1 136.889 168.508 137.031 168.995 137.031ZM184.113 129.517C185.949 129.517 186.867 130.611 186.867 132.798V138H185.49V132.866C185.49 132.107 185.354 131.551 185.082 131.2C184.821 130.849 184.396 130.673 183.807 130.673C183.115 130.673 182.571 130.905 182.175 131.37C181.778 131.835 181.58 132.469 181.58 133.274V138H180.203V132.866C180.203 132.095 180.067 131.54 179.795 131.2C179.523 130.849 179.092 130.673 178.503 130.673C177.811 130.673 177.267 130.905 176.871 131.37C176.474 131.835 176.276 132.469 176.276 133.274V138H174.899V129.721H176.259V131.03C176.508 130.543 176.854 130.169 177.296 129.908C177.738 129.647 178.248 129.517 178.826 129.517C180.106 129.517 180.951 130.061 181.359 131.149C181.597 130.639 181.959 130.242 182.447 129.959C182.934 129.664 183.489 129.517 184.113 129.517ZM196.022 134.073H189.97C190.016 135.036 190.276 135.767 190.752 136.266C191.228 136.753 191.903 136.997 192.775 136.997C193.739 136.997 194.623 136.668 195.427 136.011L195.886 137.014C195.524 137.354 195.059 137.626 194.492 137.83C193.926 138.023 193.348 138.119 192.758 138.119C191.466 138.119 190.446 137.739 189.698 136.98C188.962 136.221 188.593 135.172 188.593 133.835C188.593 132.985 188.758 132.237 189.086 131.591C189.415 130.934 189.874 130.424 190.463 130.061C191.064 129.698 191.744 129.517 192.503 129.517C193.603 129.517 194.464 129.88 195.087 130.605C195.711 131.319 196.022 132.305 196.022 133.563V134.073ZM192.52 130.588C191.795 130.588 191.211 130.815 190.769 131.268C190.339 131.721 190.084 132.362 190.004 133.189H194.815C194.793 132.35 194.583 131.71 194.186 131.268C193.79 130.815 193.234 130.588 192.52 130.588Z" fill="black"/>
<path d="M21 218.5H421" stroke="black" stroke-opacity="0.5" stroke-dasharray="8 8"/>
<path d="M89.44 267H78V278.44H89.44V267Z" fill="#010101"/>
<path d="M100.88 267H89.4399V278.44H100.88V267Z" fill="#010101"/>
<path d="M112.32 267H100.88V278.44H112.32V267Z" fill="#010101"/>
<path d="M123.76 267H112.32V278.44H123.76V267Z" fill="#010101"/>
<path d="M135.2 267H123.76V278.44H135.2V267Z" fill="#010101"/>
<path d="M146.64 267H135.2V278.44H146.64V267Z" fill="#010101"/>
<path d="M158.08 267H146.64V278.44H158.08V267Z" fill="#010101"/>
<path d="M180.96 267H169.52V278.44H180.96V267Z" fill="#010101"/>
<path d="M203.84 267H192.4V278.44H203.84V267Z" fill="#010101"/>
<path d="M226.72 267H215.28V278.44H226.72V267Z" fill="#010101"/>
<path d="M249.6 267H238.16V278.44H249.6V267Z" fill="#010101"/>
<path d="M272.48 267H261.04V278.44H272.48V267Z" fill="#010101"/>
<path d="M295.36 267H283.92V278.44H295.36V267Z" fill="#010101"/>
<path d="M306.8 267H295.36V278.44H306.8V267Z" fill="#010101"/>
<path d="M318.24 267H306.8V278.44H318.24V267Z" fill="#010101"/>
<path d="M329.68 267H318.24V278.44H329.68V267Z" fill="#010101"/>
<path d="M341.12 267H329.68V278.44H341.12V267Z" fill="#010101"/>
<path d="M352.56 267H341.12V278.44H352.56V267Z" fill="#010101"/>
<path d="M364 267H352.56V278.44H364V267Z" fill="#010101"/>
<path d="M89.44 278.44H78V289.88H89.44V278.44Z" fill="#010101"/>
<path d="M158.08 278.44H146.64V289.88H158.08V278.44Z" fill="#010101"/>
<path d="M192.4 278.44H180.96V289.88H192.4V278.44Z" fill="#010101"/>
<path d="M203.84 278.44H192.4V289.88H203.84V278.44Z" fill="#010101"/>
<path d="M215.28 278.44H203.84V289.88H215.28V278.44Z" fill="#010101"/>
<path d="M226.72 278.44H215.28V289.88H226.72V278.44Z" fill="#010101"/>
<path d="M272.48 278.44H261.04V289.88H272.48V278.44Z" fill="#010101"/>
<path d="M295.36 278.44H283.92V289.88H295.36V278.44Z" fill="#010101"/>
<path d="M364 278.44H352.56V289.88H364V278.44Z" fill="#010101"/>
<path d="M89.44 289.88H78V301.32H89.44V289.88Z" fill="#010101"/>
<path d="M112.32 289.88H100.88V301.32H112.32V289.88Z" fill="#010101"/>
<path d="M123.76 289.88H112.32V301.32H123.76V289.88Z" fill="#010101"/>
<path d="M135.2 289.88H123.76V301.32H135.2V289.88Z" fill="#010101"/>
<path d="M158.08 289.88H146.64V301.32H158.08V289.88Z" fill="#010101"/>
<path d="M180.96 289.88H169.52V301.32H180.96V289.88Z" fill="#010101"/>
<path d="M192.4 289.88H180.96V301.32H192.4V289.88Z" fill="#010101"/>
<path d="M203.84 289.88H192.4V301.32H203.84V289.88Z" fill="#010101"/>
<path d="M238.16 289.88H226.72V301.32H238.16V289.88Z" fill="#010101"/>
<path d="M249.6 289.88H238.16V301.32H249.6V289.88Z" fill="#010101"/>
<path d="M261.04 289.88H249.6V301.32H261.04V289.88Z" fill="#010101"/>
<path d="M295.36 289.88H283.92V301.32H295.36V289.88Z" fill="#010101"/>
<path d="M318.24 289.88H306.8V301.32H318.24V289.88Z" fill="#010101"/>
<path d="M329.68 289.88H318.24V301.32H329.68V289.88Z" fill="#010101"/>
<path d="M341.12 289.88H329.68V301.32H341.12V289.88Z" fill="#010101"/>
<path d="M364 289.88H352.56V301.32H364V289.88Z" fill="#010101"/>
<path d="M89.44 301.32H78V312.76H89.44V301.32Z" fill="#010101"/>
<path d="M112.32 301.32H100.88V312.76H112.32V301.32Z" fill="#010101"/>
<path d="M123.76 301.32H112.32V312.76H123.76V301.32Z" fill="#010101"/>
<path d="M135.2 301.32H123.76V312.76H135.2V301.32Z" fill="#010101"/>
<path d="M158.08 301.32H146.64V312.76H158.08V301.32Z" fill="#010101"/>
<path d="M180.96 301.32H169.52V312.76H180.96V301.32Z" fill="#010101"/>
<path d="M192.4 301.32H180.96V312.76H192.4V301.32Z" fill="#010101"/>
<path d="M203.84 301.32H192.4V312.76H203.84V301.32Z" fill="#010101"/>
<path d="M226.72 301.32H215.28V312.76H226.72V301.32Z" fill="#010101"/>
<path d="M238.16 301.32H226.72V312.76H238.16V301.32Z" fill="#010101"/>
<path d="M249.6 301.32H238.16V312.76H249.6V301.32Z" fill="#010101"/>
<path d="M261.04 301.32H249.6V312.76H261.04V301.32Z" fill="#010101"/>
<path d="M295.36 301.32H283.92V312.76H295.36V301.32Z" fill="#010101"/>
<path d="M318.24 301.32H306.8V312.76H318.24V301.32Z" fill="#010101"/>
<path d="M329.68 301.32H318.24V312.76H329.68V301.32Z" fill="#010101"/>
<path d="M341.12 301.32H329.68V312.76H341.12V301.32Z" fill="#010101"/>
<path d="M364 301.32H352.56V312.76H364V301.32Z" fill="#010101"/>
<path d="M89.44 312.76H78V324.2H89.44V312.76Z" fill="#010101"/>
<path d="M112.32 312.76H100.88V324.2H112.32V312.76Z" fill="#010101"/>
<path d="M123.76 312.76H112.32V324.2H123.76V312.76Z" fill="#010101"/>
<path d="M135.2 312.76H123.76V324.2H135.2V312.76Z" fill="#010101"/>
<path d="M158.08 312.76H146.64V324.2H158.08V312.76Z" fill="#010101"/>
<path d="M180.96 312.76H169.52V324.2H180.96V312.76Z" fill="#010101"/>
<path d="M215.28 312.76H203.84V324.2H215.28V312.76Z" fill="#010101"/>
<path d="M226.72 312.76H215.28V324.2H226.72V312.76Z" fill="#010101"/>
<path d="M238.16 312.76H226.72V324.2H238.16V312.76Z" fill="#010101"/>
<path d="M261.04 312.76H249.6V324.2H261.04V312.76Z" fill="#010101"/>
<path d="M272.48 312.76H261.04V324.2H272.48V312.76Z" fill="#010101"/>
<path d="M295.36 312.76H283.92V324.2H295.36V312.76Z" fill="#010101"/>
<path d="M318.24 312.76H306.8V324.2H318.24V312.76Z" fill="#010101"/>
<path d="M329.68 312.76H318.24V324.2H329.68V312.76Z" fill="#010101"/>
<path d="M341.12 312.76H329.68V324.2H341.12V312.76Z" fill="#010101"/>
<path d="M364 312.76H352.56V324.2H364V312.76Z" fill="#010101"/>
<path d="M89.44 324.2H78V335.64H89.44V324.2Z" fill="#010101"/>
<path d="M158.08 324.2H146.64V335.64H158.08V324.2Z" fill="#010101"/>
<path d="M203.84 324.2H192.4V335.64H203.84V324.2Z" fill="#010101"/>
<path d="M215.28 324.2H203.84V335.64H215.28V324.2Z" fill="#010101"/>
<path d="M238.16 324.2H226.72V335.64H238.16V324.2Z" fill="#010101"/>
<path d="M272.48 324.2H261.04V335.64H272.48V324.2Z" fill="#010101"/>
<path d="M295.36 324.2H283.92V335.64H295.36V324.2Z" fill="#010101"/>
<path d="M364 324.2H352.56V335.64H364V324.2Z" fill="#010101"/>
<path d="M89.44 335.64H78V347.08H89.44V335.64Z" fill="#010101"/>
<path d="M100.88 335.64H89.4399V347.08H100.88V335.64Z" fill="#010101"/>
<path d="M112.32 335.64H100.88V347.08H112.32V335.64Z" fill="#010101"/>
<path d="M123.76 335.64H112.32V347.08H123.76V335.64Z" fill="#010101"/>
<path d="M135.2 335.64H123.76V347.08H135.2V335.64Z" fill="#010101"/>
<path d="M146.64 335.64H135.2V347.08H146.64V335.64Z" fill="#010101"/>
<path d="M158.08 335.64H146.64V347.08H158.08V335.64Z" fill="#010101"/>
<path d="M180.96 335.64H169.52V347.08H180.96V335.64Z" fill="#010101"/>
<path d="M203.84 335.64H192.4V347.08H203.84V335.64Z" fill="#010101"/>
<path d="M226.72 335.64H215.28V347.08H226.72V335.64Z" fill="#010101"/>
<path d="M249.6 335.64H238.16V347.08H249.6V335.64Z" fill="#010101"/>
<path d="M272.48 335.64H261.04V347.08H272.48V335.64Z" fill="#010101"/>
<path d="M295.36 335.64H283.92V347.08H295.36V335.64Z" fill="#010101"/>
<path d="M306.8 335.64H295.36V347.08H306.8V335.64Z" fill="#010101"/>
<path d="M318.24 335.64H306.8V347.08H318.24V335.64Z" fill="#010101"/>
<path d="M329.68 335.64H318.24V347.08H329.68V335.64Z" fill="#010101"/>
<path d="M341.12 335.64H329.68V347.08H341.12V335.64Z" fill="#010101"/>
<path d="M352.56 335.64H341.12V347.08H352.56V335.64Z" fill="#010101"/>
<path d="M364 335.64H352.56V347.08H364V335.64Z" fill="#010101"/>
<path d="M203.84 347.08H192.4V358.52H203.84V347.08Z" fill="#010101"/>
<path d="M226.72 347.08H215.28V358.52H226.72V347.08Z" fill="#010101"/>
<path d="M89.44 358.52H78V369.96H89.44V358.52Z" fill="#010101"/>
<path d="M100.88 358.52H89.4399V369.96H100.88V358.52Z" fill="#010101"/>
<path d="M112.32 358.52H100.88V369.96H112.32V358.52Z" fill="#010101"/>
<path d="M123.76 358.52H112.32V369.96H123.76V358.52Z" fill="#010101"/>
<path d="M158.08 358.52H146.64V369.96H158.08V358.52Z" fill="#010101"/>
<path d="M180.96 358.52H169.52V369.96H180.96V358.52Z" fill="#010101"/>
<path d="M203.84 358.52H192.4V369.96H203.84V358.52Z" fill="#010101"/>
<path d="M215.28 358.52H203.84V369.96H215.28V358.52Z" fill="#010101"/>
<path d="M226.72 358.52H215.28V369.96H226.72V358.52Z" fill="#010101"/>
<path d="M238.16 358.52H226.72V369.96H238.16V358.52Z" fill="#010101"/>
<path d="M272.48 358.52H261.04V369.96H272.48V358.52Z" fill="#010101"/>
<path d="M283.92 358.52H272.48V369.96H283.92V358.52Z" fill="#010101"/>
<path d="M318.24 358.52H306.8V369.96H318.24V358.52Z" fill="#010101"/>
<path d="M329.68 358.52H318.24V369.96H329.68V358.52Z" fill="#010101"/>
<path d="M341.12 358.52H329.68V369.96H341.12V358.52Z" fill="#010101"/>
<path d="M364 358.52H352.56V369.96H364V358.52Z" fill="#010101"/>
<path d="M89.44 369.96H78V381.4H89.44V369.96Z" fill="#010101"/>
<path d="M123.76 369.96H112.32V381.4H123.76V369.96Z" fill="#010101"/>
<path d="M135.2 369.96H123.76V381.4H135.2V369.96Z" fill="#010101"/>
<path d="M146.64 369.96H135.2V381.4H146.64V369.96Z" fill="#010101"/>
<path d="M169.52 369.96H158.08V381.4H169.52V369.96Z" fill="#010101"/>
<path d="M180.96 369.96H169.52V381.4H180.96V369.96Z" fill="#010101"/>
<path d="M203.84 369.96H192.4V381.4H203.84V369.96Z" fill="#010101"/>
<path d="M226.72 369.96H215.28V381.4H226.72V369.96Z" fill="#010101"/>
<path d="M238.16 369.96H226.72V381.4H238.16V369.96Z" fill="#010101"/>
<path d="M306.8 369.96H295.36V381.4H306.8V369.96Z" fill="#010101"/>
<path d="M352.56 369.96H341.12V381.4H352.56V369.96Z" fill="#010101"/>
<path d="M123.76 381.4H112.32V392.84H123.76V381.4Z" fill="#010101"/>
<path d="M158.08 381.4H146.64V392.84H158.08V381.4Z" fill="#010101"/>
<path d="M169.52 381.4H158.08V392.84H169.52V381.4Z" fill="#010101"/>
<path d="M192.4 381.4H180.96V392.84H192.4V381.4Z" fill="#010101"/>
<path d="M203.84 381.4H192.4V392.84H203.84V381.4Z" fill="#010101"/>
<path d="M215.28 381.4H203.84V392.84H215.28V381.4Z" fill="#010101"/>
<path d="M226.72 381.4H215.28V392.84H226.72V381.4Z" fill="#010101"/>
<path d="M238.16 381.4H226.72V392.84H238.16V381.4Z" fill="#010101"/>
<path d="M272.48 381.4H261.04V392.84H272.48V381.4Z" fill="#010101"/>
<path d="M283.92 381.4H272.48V392.84H283.92V381.4Z" fill="#010101"/>
<path d="M318.24 381.4H306.8V392.84H318.24V381.4Z" fill="#010101"/>
<path d="M341.12 381.4H329.68V392.84H341.12V381.4Z" fill="#010101"/>
<path d="M100.88 392.84H89.4399V404.28H100.88V392.84Z" fill="#010101"/>
<path d="M123.76 392.84H112.32V404.28H123.76V392.84Z" fill="#010101"/>
<path d="M135.2 392.84H123.76V404.28H135.2V392.84Z" fill="#010101"/>
<path d="M146.64 392.84H135.2V404.28H146.64V392.84Z" fill="#010101"/>
<path d="M169.52 392.84H158.08V404.28H169.52V392.84Z" fill="#010101"/>
<path d="M180.96 392.84H169.52V404.28H180.96V392.84Z" fill="#010101"/>
<path d="M192.4 392.84H180.96V404.28H192.4V392.84Z" fill="#010101"/>
<path d="M203.84 392.84H192.4V404.28H203.84V392.84Z" fill="#010101"/>
<path d="M283.92 392.84H272.48V404.28H283.92V392.84Z" fill="#010101"/>
<path d="M306.8 392.84H295.36V404.28H306.8V392.84Z" fill="#010101"/>
<path d="M329.68 392.84H318.24V404.28H329.68V392.84Z" fill="#010101"/>
<path d="M341.12 392.84H329.68V404.28H341.12V392.84Z" fill="#010101"/>
<path d="M352.56 392.84H341.12V404.28H352.56V392.84Z" fill="#010101"/>
<path d="M89.44 404.28H78V415.72H89.44V404.28Z" fill="#010101"/>
<path d="M158.08 404.28H146.64V415.72H158.08V404.28Z" fill="#010101"/>
<path d="M169.52 404.28H158.08V415.72H169.52V404.28Z" fill="#010101"/>
<path d="M192.4 404.28H180.96V415.72H192.4V404.28Z" fill="#010101"/>
<path d="M203.84 404.28H192.4V415.72H203.84V404.28Z" fill="#010101"/>
<path d="M226.72 404.28H215.28V415.72H226.72V404.28Z" fill="#010101"/>
<path d="M249.6 404.28H238.16V415.72H249.6V404.28Z" fill="#010101"/>
<path d="M261.04 404.28H249.6V415.72H261.04V404.28Z" fill="#010101"/>
<path d="M295.36 404.28H283.92V415.72H295.36V404.28Z" fill="#010101"/>
<path d="M318.24 404.28H306.8V415.72H318.24V404.28Z" fill="#010101"/>
<path d="M329.68 404.28H318.24V415.72H329.68V404.28Z" fill="#010101"/>
<path d="M341.12 404.28H329.68V415.72H341.12V404.28Z" fill="#010101"/>
<path d="M364 404.28H352.56V415.72H364V404.28Z" fill="#010101"/>
<path d="M112.32 415.72H100.88V427.16H112.32V415.72Z" fill="#010101"/>
<path d="M123.76 415.72H112.32V427.16H123.76V415.72Z" fill="#010101"/>
<path d="M146.64 415.72H135.2V427.16H146.64V415.72Z" fill="#010101"/>
<path d="M169.52 415.72H158.08V427.16H169.52V415.72Z" fill="#010101"/>
<path d="M180.96 415.72H169.52V427.16H180.96V415.72Z" fill="#010101"/>
<path d="M192.4 415.72H180.96V427.16H192.4V415.72Z" fill="#010101"/>
<path d="M215.28 415.72H203.84V427.16H215.28V415.72Z" fill="#010101"/>
<path d="M226.72 415.72H215.28V427.16H226.72V415.72Z" fill="#010101"/>
<path d="M249.6 415.72H238.16V427.16H249.6V415.72Z" fill="#010101"/>
<path d="M261.04 415.72H249.6V427.16H261.04V415.72Z" fill="#010101"/>
<path d="M272.48 415.72H261.04V427.16H272.48V415.72Z" fill="#010101"/>
<path d="M283.92 415.72H272.48V427.16H283.92V415.72Z" fill="#010101"/>
<path d="M295.36 415.72H283.92V427.16H295.36V415.72Z" fill="#010101"/>
<path d="M318.24 415.72H306.8V427.16H318.24V415.72Z" fill="#010101"/>
<path d="M341.12 415.72H329.68V427.16H341.12V415.72Z" fill="#010101"/>
<path d="M352.56 415.72H341.12V427.16H352.56V415.72Z" fill="#010101"/>
<path d="M364 415.72H352.56V427.16H364V415.72Z" fill="#010101"/>
<path d="M100.88 427.16H89.4399V438.6H100.88V427.16Z" fill="#010101"/>
<path d="M146.64 427.16H135.2V438.6H146.64V427.16Z" fill="#010101"/>
<path d="M158.08 427.16H146.64V438.6H158.08V427.16Z" fill="#010101"/>
<path d="M180.96 427.16H169.52V438.6H180.96V427.16Z" fill="#010101"/>
<path d="M192.4 427.16H180.96V438.6H192.4V427.16Z" fill="#010101"/>
<path d="M203.84 427.16H192.4V438.6H203.84V427.16Z" fill="#010101"/>
<path d="M215.28 427.16H203.84V438.6H215.28V427.16Z" fill="#010101"/>
<path d="M238.16 427.16H226.72V438.6H238.16V427.16Z" fill="#010101"/>
<path d="M272.48 427.16H261.04V438.6H272.48V427.16Z" fill="#010101"/>
<path d="M318.24 427.16H306.8V438.6H318.24V427.16Z" fill="#010101"/>
<path d="M329.68 427.16H318.24V438.6H329.68V427.16Z" fill="#010101"/>
<path d="M341.12 427.16H329.68V438.6H341.12V427.16Z" fill="#010101"/>
<path d="M352.56 427.16H341.12V438.6H352.56V427.16Z" fill="#010101"/>
<path d="M89.44 438.6H78V450.04H89.44V438.6Z" fill="#010101"/>
<path d="M112.32 438.6H100.88V450.04H112.32V438.6Z" fill="#010101"/>
<path d="M123.76 438.6H112.32V450.04H123.76V438.6Z" fill="#010101"/>
<path d="M135.2 438.6H123.76V450.04H135.2V438.6Z" fill="#010101"/>
<path d="M169.52 438.6H158.08V450.04H169.52V438.6Z" fill="#010101"/>
<path d="M192.4 438.6H180.96V450.04H192.4V438.6Z" fill="#010101"/>
<path d="M203.84 438.6H192.4V450.04H203.84V438.6Z" fill="#010101"/>
<path d="M215.28 438.6H203.84V450.04H215.28V438.6Z" fill="#010101"/>
<path d="M249.6 438.6H238.16V450.04H249.6V438.6Z" fill="#010101"/>
<path d="M261.04 438.6H249.6V450.04H261.04V438.6Z" fill="#010101"/>
<path d="M295.36 438.6H283.92V450.04H295.36V438.6Z" fill="#010101"/>
<path d="M364 438.6H352.56V450.04H364V438.6Z" fill="#010101"/>
<path d="M123.76 450.04H112.32V461.48H123.76V450.04Z" fill="#010101"/>
<path d="M146.64 450.04H135.2V461.48H146.64V450.04Z" fill="#010101"/>
<path d="M158.08 450.04H146.64V461.48H158.08V450.04Z" fill="#010101"/>
<path d="M169.52 450.04H158.08V461.48H169.52V450.04Z" fill="#010101"/>
<path d="M180.96 450.04H169.52V461.48H180.96V450.04Z" fill="#010101"/>
<path d="M192.4 450.04H180.96V461.48H192.4V450.04Z" fill="#010101"/>
<path d="M226.72 450.04H215.28V461.48H226.72V450.04Z" fill="#010101"/>
<path d="M249.6 450.04H238.16V461.48H249.6V450.04Z" fill="#010101"/>
<path d="M272.48 450.04H261.04V461.48H272.48V450.04Z" fill="#010101"/>
<path d="M283.92 450.04H272.48V461.48H283.92V450.04Z" fill="#010101"/>
<path d="M295.36 450.04H283.92V461.48H295.36V450.04Z" fill="#010101"/>
<path d="M306.8 450.04H295.36V461.48H306.8V450.04Z" fill="#010101"/>
<path d="M318.24 450.04H306.8V461.48H318.24V450.04Z" fill="#010101"/>
<path d="M341.12 450.04H329.68V461.48H341.12V450.04Z" fill="#010101"/>
<path d="M180.96 461.48H169.52V472.92H180.96V461.48Z" fill="#010101"/>
<path d="M203.84 461.48H192.4V472.92H203.84V461.48Z" fill="#010101"/>
<path d="M249.6 461.48H238.16V472.92H249.6V461.48Z" fill="#010101"/>
<path d="M261.04 461.48H249.6V472.92H261.04V461.48Z" fill="#010101"/>
<path d="M272.48 461.48H261.04V472.92H272.48V461.48Z" fill="#010101"/>
<path d="M318.24 461.48H306.8V472.92H318.24V461.48Z" fill="#010101"/>
<path d="M329.68 461.48H318.24V472.92H329.68V461.48Z" fill="#010101"/>
<path d="M341.12 461.48H329.68V472.92H341.12V461.48Z" fill="#010101"/>
<path d="M89.44 472.92H78V484.36H89.44V472.92Z" fill="#010101"/>
<path d="M100.88 472.92H89.4399V484.36H100.88V472.92Z" fill="#010101"/>
<path d="M112.32 472.92H100.88V484.36H112.32V472.92Z" fill="#010101"/>
<path d="M123.76 472.92H112.32V484.36H123.76V472.92Z" fill="#010101"/>
<path d="M135.2 472.92H123.76V484.36H135.2V472.92Z" fill="#010101"/>
<path d="M146.64 472.92H135.2V484.36H146.64V472.92Z" fill="#010101"/>
<path d="M158.08 472.92H146.64V484.36H158.08V472.92Z" fill="#010101"/>
<path d="M192.4 472.92H180.96V484.36H192.4V472.92Z" fill="#010101"/>
<path d="M238.16 472.92H226.72V484.36H238.16V472.92Z" fill="#010101"/>
<path d="M249.6 472.92H238.16V484.36H249.6V472.92Z" fill="#010101"/>
<path d="M272.48 472.92H261.04V484.36H272.48V472.92Z" fill="#010101"/>
<path d="M295.36 472.92H283.92V484.36H295.36V472.92Z" fill="#010101"/>
<path d="M318.24 472.92H306.8V484.36H318.24V472.92Z" fill="#010101"/>
<path d="M329.68 472.92H318.24V484.36H329.68V472.92Z" fill="#010101"/>
<path d="M352.56 472.92H341.12V484.36H352.56V472.92Z" fill="#010101"/>
<path d="M364 472.92H352.56V484.36H364V472.92Z" fill="#010101"/>
<path d="M89.44 484.36H78V495.8H89.44V484.36Z" fill="#010101"/>
<path d="M158.08 484.36H146.64V495.8H158.08V484.36Z" fill="#010101"/>
<path d="M215.28 484.36H203.84V495.8H215.28V484.36Z" fill="#010101"/>
<path d="M238.16 484.36H226.72V495.8H238.16V484.36Z" fill="#010101"/>
<path d="M249.6 484.36H238.16V495.8H249.6V484.36Z" fill="#010101"/>
<path d="M261.04 484.36H249.6V495.8H261.04V484.36Z" fill="#010101"/>
<path d="M272.48 484.36H261.04V495.8H272.48V484.36Z" fill="#010101"/>
<path d="M318.24 484.36H306.8V495.8H318.24V484.36Z" fill="#010101"/>
<path d="M364 484.36H352.56V495.8H364V484.36Z" fill="#010101"/>
<path d="M89.44 495.8H78V507.24H89.44V495.8Z" fill="#010101"/>
<path d="M112.32 495.8H100.88V507.24H112.32V495.8Z" fill="#010101"/>
<path d="M123.76 495.8H112.32V507.24H123.76V495.8Z" fill="#010101"/>
<path d="M135.2 495.8H123.76V507.24H135.2V495.8Z" fill="#010101"/>
<path d="M158.08 495.8H146.64V507.24H158.08V495.8Z" fill="#010101"/>
<path d="M238.16 495.8H226.72V507.24H238.16V495.8Z" fill="#010101"/>
<path d="M249.6 495.8H238.16V507.24H249.6V495.8Z" fill="#010101"/>
<path d="M272.48 495.8H261.04V507.24H272.48V495.8Z" fill="#010101"/>
<path d="M283.92 495.8H272.48V507.24H283.92V495.8Z" fill="#010101"/>
<path d="M295.36 495.8H283.92V507.24H295.36V495.8Z" fill="#010101"/>
<path d="M306.8 495.8H295.36V507.24H306.8V495.8Z" fill="#010101"/>
<path d="M318.24 495.8H306.8V507.24H318.24V495.8Z" fill="#010101"/>
<path d="M89.44 507.24H78V518.68H89.44V507.24Z" fill="#010101"/>
<path d="M112.32 507.24H100.88V518.68H112.32V507.24Z" fill="#010101"/>
<path d="M123.76 507.24H112.32V518.68H123.76V507.24Z" fill="#010101"/>
<path d="M135.2 507.24H123.76V518.68H135.2V507.24Z" fill="#010101"/>
<path d="M158.08 507.24H146.64V518.68H158.08V507.24Z" fill="#010101"/>
<path d="M180.96 507.24H169.52V518.68H180.96V507.24Z" fill="#010101"/>
<path d="M192.4 507.24H180.96V518.68H192.4V507.24Z" fill="#010101"/>
<path d="M203.84 507.24H192.4V518.68H203.84V507.24Z" fill="#010101"/>
<path d="M272.48 507.24H261.04V518.68H272.48V507.24Z" fill="#010101"/>
<path d="M283.92 507.24H272.48V518.68H283.92V507.24Z" fill="#010101"/>
<path d="M295.36 507.24H283.92V518.68H295.36V507.24Z" fill="#010101"/>
<path d="M306.8 507.24H295.36V518.68H306.8V507.24Z" fill="#010101"/>
<path d="M318.24 507.24H306.8V518.68H318.24V507.24Z" fill="#010101"/>
<path d="M329.68 507.24H318.24V518.68H329.68V507.24Z" fill="#010101"/>
<path d="M352.56 507.24H341.12V518.68H352.56V507.24Z" fill="#010101"/>
<path d="M364 507.24H352.56V518.68H364V507.24Z" fill="#010101"/>
<path d="M89.44 518.68H78V530.12H89.44V518.68Z" fill="#010101"/>
<path d="M112.32 518.68H100.88V530.12H112.32V518.68Z" fill="#010101"/>
<path d="M123.76 518.68H112.32V530.12H123.76V518.68Z" fill="#010101"/>
<path d="M135.2 518.68H123.76V530.12H135.2V518.68Z" fill="#010101"/>
<path d="M158.08 518.68H146.64V530.12H158.08V518.68Z" fill="#010101"/>
<path d="M180.96 518.68H169.52V530.12H180.96V518.68Z" fill="#010101"/>
<path d="M249.6 518.68H238.16V530.12H249.6V518.68Z" fill="#010101"/>
<path d="M261.04 518.68H249.6V530.12H261.04V518.68Z" fill="#010101"/>
<path d="M272.48 518.68H261.04V530.12H272.48V518.68Z" fill="#010101"/>
<path d="M283.92 518.68H272.48V530.12H283.92V518.68Z" fill="#010101"/>
<path d="M295.36 518.68H283.92V530.12H295.36V518.68Z" fill="#010101"/>
<path d="M306.8 518.68H295.36V530.12H306.8V518.68Z" fill="#010101"/>
<path d="M318.24 518.68H306.8V530.12H318.24V518.68Z" fill="#010101"/>
<path d="M352.56 518.68H341.12V530.12H352.56V518.68Z" fill="#010101"/>
<path d="M89.44 530.12H78V541.56H89.44V530.12Z" fill="#010101"/>
<path d="M158.08 530.12H146.64V541.56H158.08V530.12Z" fill="#010101"/>
<path d="M180.96 530.12H169.52V541.56H180.96V530.12Z" fill="#010101"/>
<path d="M192.4 530.12H180.96V541.56H192.4V530.12Z" fill="#010101"/>
<path d="M203.84 530.12H192.4V541.56H203.84V530.12Z" fill="#010101"/>
<path d="M215.28 530.12H203.84V541.56H215.28V530.12Z" fill="#010101"/>
<path d="M226.72 530.12H215.28V541.56H226.72V530.12Z" fill="#010101"/>
<path d="M238.16 530.12H226.72V541.56H238.16V530.12Z" fill="#010101"/>
<path d="M249.6 530.12H238.16V541.56H249.6V530.12Z" fill="#010101"/>
<path d="M283.92 530.12H272.48V541.56H283.92V530.12Z" fill="#010101"/>
<path d="M329.68 530.12H318.24V541.56H329.68V530.12Z" fill="#010101"/>
<path d="M341.12 530.12H329.68V541.56H341.12V530.12Z" fill="#010101"/>
<path d="M89.44 541.56H78V553H89.44V541.56Z" fill="#010101"/>
<path d="M100.88 541.56H89.4399V553H100.88V541.56Z" fill="#010101"/>
<path d="M112.32 541.56H100.88V553H112.32V541.56Z" fill="#010101"/>
<path d="M123.76 541.56H112.32V553H123.76V541.56Z" fill="#010101"/>
<path d="M135.2 541.56H123.76V553H135.2V541.56Z" fill="#010101"/>
<path d="M146.64 541.56H135.2V553H146.64V541.56Z" fill="#010101"/>
<path d="M158.08 541.56H146.64V553H158.08V541.56Z" fill="#010101"/>
<path d="M180.96 541.56H169.52V553H180.96V541.56Z" fill="#010101"/>
<path d="M203.84 541.56H192.4V553H203.84V541.56Z" fill="#010101"/>
<path d="M215.28 541.56H203.84V553H215.28V541.56Z" fill="#010101"/>
<path d="M295.36 541.56H283.92V553H295.36V541.56Z" fill="#010101"/>
<path d="M318.24 541.56H306.8V553H318.24V541.56Z" fill="#010101"/>
<path d="M329.68 541.56H318.24V553H329.68V541.56Z" fill="#010101"/>
<path d="M341.12 541.56H329.68V553H341.12V541.56Z" fill="#010101"/>
<path d="M352.56 541.56H341.12V553H352.56V541.56Z" fill="#010101"/>
<path d="M364 541.56H352.56V553H364V541.56Z" fill="#010101"/>
<path d="M92.652 176.152H98.313V180H82.218V176.152H87.879V159.354L83.402 162.055L81.515 158.577L89.248 153.915H92.652V176.152ZM106.735 174.894V178.261C106.735 179.544 106.513 180.703 106.069 181.739C105.625 182.8 104.872 183.86 103.812 184.921L101.925 183.441C103.084 182.208 103.75 181.061 103.923 180H101.555V174.894H106.735ZM123.238 166.606C124.768 167.001 125.939 167.753 126.753 168.863C127.592 169.948 128.011 171.305 128.011 172.933C128.011 175.202 127.173 177.003 125.495 178.335C123.843 179.642 121.586 180.296 118.724 180.296C116.973 180.296 115.283 180.025 113.655 179.482C112.052 178.939 110.72 178.199 109.659 177.262L111.25 173.784C113.52 175.585 115.949 176.485 118.539 176.485C120.192 176.485 121.425 176.164 122.239 175.523C123.053 174.857 123.46 173.858 123.46 172.526C123.46 171.219 123.041 170.257 122.202 169.64C121.388 168.999 120.118 168.678 118.391 168.678H114.95V164.904H117.762C121.142 164.904 122.831 163.634 122.831 161.093C122.831 159.909 122.461 158.996 121.721 158.355C121.006 157.714 119.982 157.393 118.65 157.393C117.491 157.393 116.307 157.627 115.098 158.096C113.914 158.54 112.755 159.206 111.62 160.094L110.029 156.616C111.065 155.679 112.385 154.939 113.988 154.396C115.616 153.853 117.269 153.582 118.946 153.582C121.512 153.582 123.559 154.211 125.088 155.469C126.618 156.702 127.382 158.38 127.382 160.501C127.358 161.956 126.975 163.227 126.235 164.312C125.52 165.373 124.521 166.137 123.238 166.606ZM140.762 180.333C137.678 180.333 135.323 179.198 133.695 176.929C132.067 174.635 131.253 171.305 131.253 166.939C131.253 162.622 132.067 159.329 133.695 157.06C135.323 154.791 137.678 153.656 140.762 153.656C143.845 153.656 146.201 154.791 147.829 157.06C149.457 159.329 150.271 162.622 150.271 166.939C150.271 171.28 149.457 174.598 147.829 176.892C146.201 179.186 143.845 180.333 140.762 180.333ZM140.762 176.596C142.439 176.596 143.66 175.831 144.425 174.302C145.189 172.748 145.572 170.294 145.572 166.939C145.572 163.609 145.189 161.192 144.425 159.687C143.66 158.158 142.439 157.393 140.762 157.393C139.084 157.393 137.863 158.158 137.099 159.687C136.334 161.192 135.952 163.609 135.952 166.939C135.952 170.294 136.334 172.748 137.099 174.302C137.863 175.831 139.084 176.596 140.762 176.596ZM162.318 180.333C159.235 180.333 156.879 179.198 155.251 176.929C153.623 174.635 152.809 171.305 152.809 166.939C152.809 162.622 153.623 159.329 155.251 157.06C156.879 154.791 159.235 153.656 162.318 153.656C165.402 153.656 167.757 154.791 169.385 157.06C171.013 159.329 171.827 162.622 171.827 166.939C171.827 171.28 171.013 174.598 169.385 176.892C167.757 179.186 165.402 180.333 162.318 180.333ZM162.318 176.596C163.996 176.596 165.217 175.831 165.981 174.302C166.746 172.748 167.128 170.294 167.128 166.939C167.128 163.609 166.746 161.192 165.981 159.687C165.217 158.158 163.996 157.393 162.318 157.393C160.641 157.393 159.42 158.158 158.655 159.687C157.891 161.192 157.508 163.609 157.508 166.939C157.508 170.294 157.891 172.748 158.655 174.302C159.42 175.831 160.641 176.596 162.318 176.596ZM179.953 174.894V178.261C179.953 179.544 179.731 180.703 179.287 181.739C178.843 182.8 178.091 183.86 177.03 184.921L175.143 183.441C176.302 182.208 176.968 181.061 177.141 180H174.773V174.894H179.953ZM192.424 180.333C189.34 180.333 186.985 179.198 185.357 176.929C183.729 174.635 182.915 171.305 182.915 166.939C182.915 162.622 183.729 159.329 185.357 157.06C186.985 154.791 189.34 153.656 192.424 153.656C195.507 153.656 197.863 154.791 199.491 157.06C201.119 159.329 201.933 162.622 201.933 166.939C201.933 171.28 201.119 174.598 199.491 176.892C197.863 179.186 195.507 180.333 192.424 180.333ZM192.424 176.596C194.101 176.596 195.322 175.831 196.087 174.302C196.851 172.748 197.234 170.294 197.234 166.939C197.234 163.609 196.851 161.192 196.087 159.687C195.322 158.158 194.101 157.393 192.424 157.393C190.746 157.393 189.525 158.158 188.761 159.687C187.996 161.192 187.614 163.609 187.614 166.939C187.614 170.294 187.996 172.748 188.761 174.302C189.525 175.831 190.746 176.596 192.424 176.596ZM213.98 180.333C210.897 180.333 208.541 179.198 206.913 176.929C205.285 174.635 204.471 171.305 204.471 166.939C204.471 162.622 205.285 159.329 206.913 157.06C208.541 154.791 210.897 153.656 213.98 153.656C217.064 153.656 219.419 154.791 221.047 157.06C222.675 159.329 223.489 162.622 223.489 166.939C223.489 171.28 222.675 174.598 221.047 176.892C219.419 179.186 217.064 180.333 213.98 180.333ZM213.98 176.596C215.658 176.596 216.879 175.831 217.643 174.302C218.408 172.748 218.79 170.294 218.79 166.939C218.79 163.609 218.408 161.192 217.643 159.687C216.879 158.158 215.658 157.393 213.98 157.393C212.303 157.393 211.082 158.158 210.317 159.687C209.553 161.192 209.17 163.609 209.17 166.939C209.17 170.294 209.553 172.748 210.317 174.302C211.082 175.831 212.303 176.596 213.98 176.596ZM235.537 180.333C232.453 180.333 230.098 179.198 228.47 176.929C226.842 174.635 226.028 171.305 226.028 166.939C226.028 162.622 226.842 159.329 228.47 157.06C230.098 154.791 232.453 153.656 235.537 153.656C238.62 153.656 240.976 154.791 242.604 157.06C244.232 159.329 245.046 162.622 245.046 166.939C245.046 171.28 244.232 174.598 242.604 176.892C240.976 179.186 238.62 180.333 235.537 180.333ZM235.537 176.596C237.214 176.596 238.435 175.831 239.2 174.302C239.964 172.748 240.347 170.294 240.347 166.939C240.347 163.609 239.964 161.192 239.2 159.687C238.435 158.158 237.214 157.393 235.537 157.393C233.859 157.393 232.638 158.158 231.874 159.687C231.109 161.192 230.727 163.609 230.727 166.939C230.727 170.294 231.109 172.748 231.874 174.302C232.638 175.831 233.859 176.596 235.537 176.596Z" fill="black"/>
<path d="M268.846 173.5H267.044L260.873 167.805V173.5H259.479V161.515H260.873V167.023L266.755 161.515H268.523L262.267 167.346L268.846 173.5ZM278.416 161.515H279.793V173.5H278.416V168.009H271.242V173.5H269.865V161.515H271.242V166.819H278.416V161.515ZM291.894 173.5H290.364L288.324 169.658C288.074 169.193 287.78 168.876 287.44 168.706C287.111 168.525 286.658 168.434 286.08 168.434H283.836V173.5H282.459V161.515H287.389C288.692 161.515 289.684 161.804 290.364 162.382C291.055 162.96 291.401 163.81 291.401 164.932C291.401 165.861 291.134 166.615 290.602 167.193C290.08 167.76 289.332 168.117 288.358 168.264C288.664 168.355 288.93 168.508 289.157 168.723C289.395 168.938 289.61 169.227 289.803 169.59L291.894 173.5ZM287.27 167.278C288.199 167.278 288.89 167.085 289.344 166.7C289.808 166.315 290.041 165.731 290.041 164.949C290.041 164.178 289.814 163.606 289.361 163.232C288.907 162.858 288.21 162.671 287.27 162.671H283.836V167.278H287.27Z" fill="black"/>
</g>
<defs>
<filter id="filter0_d_322_2" x="0" y="0" width="442" height="622" filterUnits="userSpaceOnUse" color-interpolation-filters="sRGB">
<feFlood flood-opacity="0" result="BackgroundImageFix"/>
<feColorMatrix in="SourceAlpha" type="matrix" values="0 0 0 0 0 0 0 0 0 0 0 0 0 0 0 0 0 0 127 0" result="hardAlpha"/>
<feOffset/>
<feGaussianBlur stdDeviation="10.5"/>
<feComposite in2="hardAlpha" operator="out"/>
<feColorMatrix type="matrix" values="0 0 0 0 0 0 0 0 0 0 0 0 0 0 0 0 0 0 0.16 0"/>
<feBlend mode="normal" in2="BackgroundImageFix" result="effect1_dropShadow_322_2"/>
<feBlend mode="normal" in="SourceGraphic" in2="effect1_dropShadow_322_2" result="shape"/>
</filter>
</defs>
</svg>
