<svg width="166" height="40" viewBox="0 0 166 40" fill="none" xmlns="http://www.w3.org/2000/svg">
<path d="M107.798 14.5845V26.9495H95.4329C94.1647 26.9495 93.2136 25.9191 93.2136 24.7302V14.5845C93.2136 13.3163 94.244 12.3651 95.4329 12.3651H105.499C106.847 12.3651 107.798 13.3163 107.798 14.5845Z" fill="white"/>
<path d="M165.739 19.578H159.557C159.557 12.2065 153.533 6.18253 146.161 6.18253C140.296 6.18253 135.144 9.98717 133.4 15.5356C133.004 16.8831 132.766 18.2305 132.766 19.578V39.2353H132.607C129.278 39.2353 126.583 36.5404 126.583 33.2113V19.578H126.663C126.663 14.1881 128.882 9.03601 132.845 5.31064C136.491 1.90232 141.247 0 146.241 0C157.02 0 165.739 8.79822 165.739 19.578Z" fill="white"/>
<path d="M165.819 39.2353L157.1 39.3146L154.96 37.1745L150.204 32.4187L143.625 25.8398H152.344L165.819 39.2353Z" fill="white"/>
<path d="M109.859 33.132H91.232C88.9333 33.132 87.1103 31.309 87.1103 29.0103V10.3042C87.1103 8.00559 88.9333 6.18253 91.232 6.18253H109.859C112.157 6.18253 113.981 8.00559 113.981 10.3042V28.9311L120.163 35.1136V6.02401C120.163 2.69495 117.468 0 114.139 0H86.9517C83.6227 0 80.9277 2.69495 80.9277 6.02401V33.2113C80.9277 36.5404 83.6227 39.2353 86.9517 39.2353H116.041L109.859 33.132Z" fill="white"/>
<path d="M34.1625 39.3146H25.4435L7.21295 21.0048V39.3146H0V0H7.21295V17.5172L24.6509 0H33.2906L14.2674 18.8647L34.1625 39.3146Z" fill="white"/>
<path d="M66.7397 0H73.7941V39.3146H66.7397V22.1937H46.6068V39.2353H39.5524V0H46.6068V16.4075H66.7397V0Z" fill="white"/>
</svg>
