<svg width="204" height="321" viewBox="0 0 204 321" fill="none" xmlns="http://www.w3.org/2000/svg">
<rect width="204" height="321" fill="white"/>
<path d="M0 0V26L14.7951 13.8093H203.974L204 0H0Z" fill="#9B1F21"/>
<path d="M204 307H0V321H204V307Z" fill="#9B1F21"/>
<path d="M79.6815 54.3869V41.7477H84.4046C85.6021 41.7477 86.683 41.9971 87.6144 42.4961C88.5457 42.995 89.3107 43.7434 89.8262 44.658C90.3584 45.606 90.6245 46.7369 90.6245 48.0507C90.6245 49.3645 90.3584 50.512 89.8262 51.4433C89.3107 52.358 88.5457 53.123 87.6144 53.6053C86.683 54.1042 85.6021 54.3537 84.4046 54.3537H79.6815V54.3869ZM81.9932 52.3414H84.4046C85.2195 52.3414 85.9014 52.1751 86.4502 51.8258C86.999 51.4766 87.4148 50.9943 87.6809 50.3623C87.9636 49.7304 88.0966 48.9654 88.0966 48.0839C88.0966 47.2025 87.9636 46.4541 87.6809 45.8055C87.3982 45.1736 86.999 44.6747 86.4502 44.3421C85.9014 43.9928 85.2195 43.8265 84.4046 43.8265H81.9932V52.3414Z" fill="#9B1F21"/>
<path d="M92.6873 54.387V41.7477H100.77V43.9928H95.0489V46.687H99.4892V48.9321H95.0489V52.1584H100.953V54.4036H92.6873V54.387Z" fill="#9B1F21"/>
<path d="M106.041 54.3869L101.55 41.7477H103.879L107.371 51.7094H106.906L110.415 41.7477H112.743L108.253 54.3869H106.041Z" fill="#9B1F21"/>
<path d="M118.181 54.387V41.7477H122.954C124.168 41.7477 125.083 42.0138 125.682 42.5293C126.28 43.0449 126.563 43.8099 126.563 44.7911C126.563 45.5228 126.397 46.1548 126.064 46.6537C125.731 47.1526 125.233 47.5185 124.567 47.7513V47.3189C125.582 47.5351 126.33 47.9343 126.829 48.5163C127.328 49.0984 127.577 49.8634 127.577 50.8114C127.577 51.9422 127.212 52.8403 126.48 53.4556C125.748 54.0876 124.734 54.4036 123.47 54.4036L118.181 54.387ZM120.493 46.7202H122.605C123.17 46.7202 123.586 46.6038 123.869 46.371C124.152 46.1382 124.285 45.7723 124.285 45.2734C124.285 44.7578 124.152 44.3753 123.869 44.1425C123.586 43.9097 123.17 43.8099 122.605 43.8099H120.493V46.7202ZM120.493 52.3414H123.104C123.736 52.3414 124.235 52.2083 124.617 51.9589C125 51.6928 125.183 51.2271 125.183 50.5619C125.183 49.8801 124.983 49.4144 124.584 49.1649C124.185 48.9155 123.686 48.7991 123.104 48.7991H120.493V52.3414Z" fill="#9B1F21"/>
<path d="M133.432 44.0094H134.031L130.388 54.3869H128.143L132.634 41.7477H134.812L139.302 54.3869H137.057L133.432 44.0094ZM136.375 51.3934H131.087V49.3645H136.375V51.3934Z" fill="#9B1F21"/>
<path d="M140.765 54.3869V41.7477H143.043L148.448 49.9133V41.7477H150.76V54.3869H148.864L143.077 45.7224V54.3869H140.765Z" fill="#9B1F21"/>
<path d="M153.521 54.3869V41.7477H155.833V54.3869H153.521ZM160.689 54.3869L156.016 47.7014L160.689 41.7477H163.4L158.694 47.7014L163.4 54.3869H160.689Z" fill="#9B1F21"/>
<path d="M56.0667 33L50.7781 38.2885L60.5736 48.0673L50.7781 57.8461L56.0667 63.1347L65.8455 53.3559L71.134 48.0673L56.0667 33Z" fill="#9B1F21"/>
<path d="M46.28 42.7973L41 48.0773L46.28 53.3574L51.56 48.0773L46.28 42.7973Z" fill="#9B1F21"/>
<path d="M43.8172 234.154C43.0425 234.154 42.3005 234.061 41.5912 233.874C40.8819 233.678 40.2985 233.421 39.8412 233.104L40.5552 231.102C40.9845 231.391 41.4885 231.62 42.0672 231.788C42.6459 231.956 43.2292 232.04 43.8172 232.04C44.4332 232.04 44.8625 231.961 45.1052 231.802C45.3572 231.634 45.4832 231.429 45.4832 231.186C45.4832 230.971 45.3945 230.799 45.2172 230.668C45.0492 230.537 44.7459 230.425 44.3072 230.332L42.6692 229.982C40.8959 229.599 40.0092 228.671 40.0092 227.196C40.0092 226.552 40.1819 225.987 40.5272 225.502C40.8819 225.017 41.3719 224.643 41.9972 224.382C42.6225 224.111 43.3505 223.976 44.1812 223.976C44.8625 223.976 45.5065 224.074 46.1132 224.27C46.7292 224.457 47.2285 224.713 47.6112 225.04L46.8972 226.916C46.5425 226.655 46.1319 226.454 45.6652 226.314C45.1985 226.165 44.6945 226.09 44.1532 226.09C43.6305 226.09 43.2292 226.183 42.9492 226.37C42.6692 226.547 42.5292 226.781 42.5292 227.07C42.5292 227.275 42.6132 227.443 42.7812 227.574C42.9492 227.705 43.2479 227.817 43.6772 227.91L45.3012 228.26C47.1025 228.643 48.0032 229.548 48.0032 230.976C48.0032 231.62 47.8305 232.18 47.4852 232.656C47.1399 233.132 46.6545 233.501 46.0292 233.762C45.4039 234.023 44.6665 234.154 43.8172 234.154ZM53.7903 234.154C52.7917 234.154 51.9143 233.944 51.1583 233.524C50.4117 233.095 49.8283 232.497 49.4083 231.732C48.9883 230.967 48.7783 230.075 48.7783 229.058C48.7783 228.031 48.9837 227.14 49.3943 226.384C49.8143 225.619 50.4023 225.026 51.1583 224.606C51.9143 224.186 52.7917 223.976 53.7903 223.976C54.789 223.976 55.6617 224.186 56.4083 224.606C57.1643 225.026 57.7523 225.619 58.1723 226.384C58.5923 227.14 58.8023 228.031 58.8023 229.058C58.8023 230.075 58.5923 230.967 58.1723 231.732C57.7523 232.497 57.1643 233.095 56.4083 233.524C55.6617 233.944 54.789 234.154 53.7903 234.154ZM53.7903 231.998C54.5183 231.998 55.0877 231.741 55.4983 231.228C55.9183 230.705 56.1283 229.982 56.1283 229.058C56.1283 228.134 55.923 227.415 55.5123 226.902C55.1017 226.389 54.5277 226.132 53.7903 226.132C53.053 226.132 52.479 226.389 52.0683 226.902C51.6577 227.415 51.4523 228.134 51.4523 229.058C51.4523 229.982 51.6577 230.705 52.0683 231.228C52.479 231.741 53.053 231.998 53.7903 231.998ZM63.7533 234.154C62.9786 234.154 62.2366 234.061 61.5273 233.874C60.818 233.678 60.2346 233.421 59.7773 233.104L60.4913 231.102C60.9206 231.391 61.4246 231.62 62.0033 231.788C62.582 231.956 63.1653 232.04 63.7533 232.04C64.3693 232.04 64.7986 231.961 65.0413 231.802C65.2933 231.634 65.4193 231.429 65.4193 231.186C65.4193 230.971 65.3306 230.799 65.1533 230.668C64.9853 230.537 64.682 230.425 64.2433 230.332L62.6053 229.982C60.832 229.599 59.9453 228.671 59.9453 227.196C59.9453 226.552 60.118 225.987 60.4633 225.502C60.818 225.017 61.308 224.643 61.9333 224.382C62.5586 224.111 63.2866 223.976 64.1173 223.976C64.7986 223.976 65.4426 224.074 66.0493 224.27C66.6653 224.457 67.1646 224.713 67.5473 225.04L66.8333 226.916C66.4786 226.655 66.068 226.454 65.6013 226.314C65.1346 226.165 64.6306 226.09 64.0893 226.09C63.5666 226.09 63.1653 226.183 62.8853 226.37C62.6053 226.547 62.4653 226.781 62.4653 227.07C62.4653 227.275 62.5493 227.443 62.7173 227.574C62.8853 227.705 63.184 227.817 63.6133 227.91L65.2373 228.26C67.0386 228.643 67.9393 229.548 67.9393 230.976C67.9393 231.62 67.7666 232.18 67.4213 232.656C67.076 233.132 66.5906 233.501 65.9653 233.762C65.34 234.023 64.6026 234.154 63.7533 234.154ZM73.7264 234.154C72.7278 234.154 71.8504 233.944 71.0944 233.524C70.3478 233.095 69.7644 232.497 69.3444 231.732C68.9244 230.967 68.7144 230.075 68.7144 229.058C68.7144 228.031 68.9198 227.14 69.3304 226.384C69.7504 225.619 70.3384 225.026 71.0944 224.606C71.8504 224.186 72.7278 223.976 73.7264 223.976C74.7251 223.976 75.5978 224.186 76.3444 224.606C77.1004 225.026 77.6884 225.619 78.1084 226.384C78.5284 227.14 78.7384 228.031 78.7384 229.058C78.7384 230.075 78.5284 230.967 78.1084 231.732C77.6884 232.497 77.1004 233.095 76.3444 233.524C75.5978 233.944 74.7251 234.154 73.7264 234.154ZM73.7264 231.998C74.4544 231.998 75.0238 231.741 75.4344 231.228C75.8544 230.705 76.0644 229.982 76.0644 229.058C76.0644 228.134 75.8591 227.415 75.4484 226.902C75.0378 226.389 74.4638 226.132 73.7264 226.132C72.9891 226.132 72.4151 226.389 72.0044 226.902C71.5938 227.415 71.3884 228.134 71.3884 229.058C71.3884 229.982 71.5938 230.705 72.0044 231.228C72.4151 231.741 72.9891 231.998 73.7264 231.998ZM80.0214 234V224.13H84.7674C85.8874 224.13 86.7507 224.405 87.3574 224.956C87.9734 225.497 88.2814 226.253 88.2814 227.224C88.2814 227.961 88.0947 228.582 87.7214 229.086C87.3574 229.581 86.8254 229.926 86.1254 230.122C86.6481 230.262 87.0681 230.621 87.3854 231.2L88.9254 234H86.0974L84.3894 230.864C84.2774 230.668 84.1327 230.528 83.9554 230.444C83.7874 230.36 83.5914 230.318 83.3674 230.318H82.5974V234H80.0214ZM82.5974 228.498H84.3054C85.3227 228.498 85.8314 228.097 85.8314 227.294C85.8314 226.501 85.3227 226.104 84.3054 226.104H82.5974V228.498ZM94.3598 234.154C93.3612 234.154 92.4838 233.944 91.7278 233.524C90.9812 233.095 90.3978 232.497 89.9778 231.732C89.5578 230.967 89.3478 230.075 89.3478 229.058C89.3478 228.031 89.5532 227.14 89.9638 226.384C90.3838 225.619 90.9718 225.026 91.7278 224.606C92.4838 224.186 93.3612 223.976 94.3598 223.976C95.3585 223.976 96.2312 224.186 96.9778 224.606C97.7338 225.026 98.3218 225.619 98.7418 226.384C99.1618 227.14 99.3718 228.031 99.3718 229.058C99.3718 230.075 99.1618 230.967 98.7418 231.732C98.3218 232.497 97.7338 233.095 96.9778 233.524C96.2312 233.944 95.3585 234.154 94.3598 234.154ZM94.3598 231.998C95.0878 231.998 95.6572 231.741 96.0678 231.228C96.4878 230.705 96.6978 229.982 96.6978 229.058C96.6978 228.134 96.4925 227.415 96.0818 226.902C95.6712 226.389 95.0972 226.132 94.3598 226.132C93.6225 226.132 93.0485 226.389 92.6378 226.902C92.2272 227.415 92.0218 228.134 92.0218 229.058C92.0218 229.982 92.2272 230.705 92.6378 231.228C93.0485 231.741 93.6225 231.998 94.3598 231.998ZM104.451 234V224.13H106.593L109.743 229.786L112.893 224.13H114.979V234H112.655V228.638L110.401 232.544H109.001L106.775 228.694V234H104.451ZM120.926 234.154C119.488 234.154 118.387 233.79 117.622 233.062C116.866 232.334 116.488 231.247 116.488 229.8V224.13H119.064V229.828C119.064 230.547 119.222 231.088 119.54 231.452C119.857 231.816 120.319 231.998 120.926 231.998C121.523 231.998 121.98 231.816 122.298 231.452C122.615 231.088 122.774 230.547 122.774 229.828V224.13H125.308V229.8C125.308 231.247 124.934 232.334 124.188 233.062C123.45 233.79 122.363 234.154 120.926 234.154ZM130.46 234.154C129.686 234.154 128.944 234.061 128.234 233.874C127.525 233.678 126.942 233.421 126.484 233.104L127.198 231.102C127.628 231.391 128.132 231.62 128.71 231.788C129.289 231.956 129.872 232.04 130.46 232.04C131.076 232.04 131.506 231.961 131.748 231.802C132 231.634 132.126 231.429 132.126 231.186C132.126 230.971 132.038 230.799 131.86 230.668C131.692 230.537 131.389 230.425 130.95 230.332L129.312 229.982C127.539 229.599 126.652 228.671 126.652 227.196C126.652 226.552 126.825 225.987 127.17 225.502C127.525 225.017 128.015 224.643 128.64 224.382C129.266 224.111 129.994 223.976 130.824 223.976C131.506 223.976 132.15 224.074 132.756 224.27C133.372 224.457 133.872 224.713 134.254 225.04L133.54 226.916C133.186 226.655 132.775 226.454 132.308 226.314C131.842 226.165 131.338 226.09 130.796 226.09C130.274 226.09 129.872 226.183 129.592 226.37C129.312 226.547 129.172 226.781 129.172 227.07C129.172 227.275 129.256 227.443 129.424 227.574C129.592 227.705 129.891 227.817 130.32 227.91L131.944 228.26C133.746 228.643 134.646 229.548 134.646 230.976C134.646 231.62 134.474 232.18 134.128 232.656C133.783 233.132 133.298 233.501 132.672 233.762C132.047 234.023 131.31 234.154 130.46 234.154ZM135.673 234V224.13H142.645V226.118H138.137V227.994H142.323V229.982H138.137V232.012H142.645V234H135.673ZM148.403 234.154C146.966 234.154 145.864 233.79 145.099 233.062C144.343 232.334 143.965 231.247 143.965 229.8V224.13H146.541V229.828C146.541 230.547 146.7 231.088 147.017 231.452C147.334 231.816 147.796 231.998 148.403 231.998C149 231.998 149.458 231.816 149.775 231.452C150.092 231.088 150.251 230.547 150.251 229.828V224.13H152.785V229.8C152.785 231.247 152.412 232.334 151.665 233.062C150.928 233.79 149.84 234.154 148.403 234.154ZM154.298 234V224.13H156.44L159.59 229.786L162.74 224.13H164.826V234H162.502V228.638L160.248 232.544H158.848L156.622 228.694V234H154.298Z" fill="black"/>
<path d="M60.3254 249.09C59.9454 249.09 59.5854 249.037 59.2454 248.93C58.9054 248.823 58.6254 248.673 58.4054 248.48L58.6654 247.91C58.9054 248.103 59.1687 248.247 59.4554 248.34C59.7487 248.427 60.0454 248.47 60.3454 248.47C60.7254 248.47 61.0121 248.4 61.2054 248.26C61.3987 248.12 61.4954 247.93 61.4954 247.69C61.4954 247.503 61.4321 247.357 61.3054 247.25C61.1787 247.137 60.9787 247.05 60.7054 246.99L59.7954 246.79C58.9687 246.61 58.5554 246.183 58.5554 245.51C58.5554 245.07 58.7287 244.717 59.0754 244.45C59.4287 244.183 59.8887 244.05 60.4554 244.05C60.7887 244.05 61.1054 244.103 61.4054 244.21C61.7121 244.31 61.9654 244.46 62.1654 244.66L61.8954 245.23C61.7021 245.05 61.4754 244.913 61.2154 244.82C60.9621 244.72 60.7087 244.67 60.4554 244.67C60.0821 244.67 59.7987 244.743 59.6054 244.89C59.4121 245.037 59.3154 245.23 59.3154 245.47C59.3154 245.843 59.5621 246.083 60.0554 246.19L60.9654 246.38C61.3921 246.473 61.7154 246.623 61.9354 246.83C62.1554 247.03 62.2654 247.303 62.2654 247.65C62.2654 248.097 62.0887 248.45 61.7354 248.71C61.3821 248.963 60.9121 249.09 60.3254 249.09ZM65.3498 249.09C64.8765 249.09 64.4665 248.987 64.1198 248.78C63.7732 248.573 63.5032 248.283 63.3098 247.91C63.1232 247.53 63.0298 247.083 63.0298 246.57C63.0298 246.057 63.1232 245.613 63.3098 245.24C63.5032 244.86 63.7732 244.567 64.1198 244.36C64.4665 244.153 64.8765 244.05 65.3498 244.05C65.8165 244.05 66.2232 244.153 66.5698 244.36C66.9232 244.567 67.1932 244.86 67.3798 245.24C67.5732 245.613 67.6698 246.057 67.6698 246.57C67.6698 247.083 67.5732 247.53 67.3798 247.91C67.1932 248.283 66.9232 248.573 66.5698 248.78C66.2232 248.987 65.8165 249.09 65.3498 249.09ZM65.3498 248.44C65.8032 248.44 66.1665 248.28 66.4398 247.96C66.7132 247.633 66.8498 247.17 66.8498 246.57C66.8498 245.963 66.7132 245.5 66.4398 245.18C66.1665 244.86 65.8032 244.7 65.3498 244.7C64.8898 244.7 64.5232 244.86 64.2498 245.18C63.9832 245.5 63.8498 245.963 63.8498 246.57C63.8498 247.17 63.9832 247.633 64.2498 247.96C64.5232 248.28 64.8898 248.44 65.3498 248.44ZM70.3565 249.09C69.9765 249.09 69.6165 249.037 69.2765 248.93C68.9365 248.823 68.6565 248.673 68.4365 248.48L68.6965 247.91C68.9365 248.103 69.1998 248.247 69.4865 248.34C69.7798 248.427 70.0765 248.47 70.3765 248.47C70.7565 248.47 71.0432 248.4 71.2365 248.26C71.4298 248.12 71.5265 247.93 71.5265 247.69C71.5265 247.503 71.4632 247.357 71.3365 247.25C71.2098 247.137 71.0098 247.05 70.7365 246.99L69.8265 246.79C68.9998 246.61 68.5865 246.183 68.5865 245.51C68.5865 245.07 68.7598 244.717 69.1065 244.45C69.4598 244.183 69.9198 244.05 70.4865 244.05C70.8198 244.05 71.1365 244.103 71.4365 244.21C71.7432 244.31 71.9965 244.46 72.1965 244.66L71.9265 245.23C71.7332 245.05 71.5065 244.913 71.2465 244.82C70.9932 244.72 70.7398 244.67 70.4865 244.67C70.1132 244.67 69.8298 244.743 69.6365 244.89C69.4432 245.037 69.3465 245.23 69.3465 245.47C69.3465 245.843 69.5932 246.083 70.0865 246.19L70.9965 246.38C71.4232 246.473 71.7465 246.623 71.9665 246.83C72.1865 247.03 72.2965 247.303 72.2965 247.65C72.2965 248.097 72.1198 248.45 71.7665 248.71C71.4132 248.963 70.9432 249.09 70.3565 249.09ZM75.3809 249.09C74.9076 249.09 74.4976 248.987 74.1509 248.78C73.8043 248.573 73.5343 248.283 73.3409 247.91C73.1543 247.53 73.0609 247.083 73.0609 246.57C73.0609 246.057 73.1543 245.613 73.3409 245.24C73.5343 244.86 73.8043 244.567 74.1509 244.36C74.4976 244.153 74.9076 244.05 75.3809 244.05C75.8476 244.05 76.2543 244.153 76.6009 244.36C76.9543 244.567 77.2243 244.86 77.4109 245.24C77.6043 245.613 77.7009 246.057 77.7009 246.57C77.7009 247.083 77.6043 247.53 77.4109 247.91C77.2243 248.283 76.9543 248.573 76.6009 248.78C76.2543 248.987 75.8476 249.09 75.3809 249.09ZM75.3809 248.44C75.8343 248.44 76.1976 248.28 76.4709 247.96C76.7443 247.633 76.8809 247.17 76.8809 246.57C76.8809 245.963 76.7443 245.5 76.4709 245.18C76.1976 244.86 75.8343 244.7 75.3809 244.7C74.9209 244.7 74.5543 244.86 74.2809 245.18C74.0143 245.5 73.8809 245.963 73.8809 246.57C73.8809 247.17 74.0143 247.633 74.2809 247.96C74.5543 248.28 74.9209 248.44 75.3809 248.44ZM78.7476 249V244.14H79.5376V245.01C79.7976 244.423 80.3309 244.1 81.1376 244.04L81.4276 244.01L81.4876 244.71L80.9776 244.77C80.5176 244.81 80.1676 244.957 79.9276 245.21C79.6876 245.457 79.5676 245.797 79.5676 246.23V249H78.7476ZM84.123 249.09C83.6496 249.09 83.2396 248.987 82.893 248.78C82.5463 248.573 82.2763 248.283 82.083 247.91C81.8963 247.53 81.803 247.083 81.803 246.57C81.803 246.057 81.8963 245.613 82.083 245.24C82.2763 244.86 82.5463 244.567 82.893 244.36C83.2396 244.153 83.6496 244.05 84.123 244.05C84.5896 244.05 84.9963 244.153 85.343 244.36C85.6963 244.567 85.9663 244.86 86.153 245.24C86.3463 245.613 86.443 246.057 86.443 246.57C86.443 247.083 86.3463 247.53 86.153 247.91C85.9663 248.283 85.6963 248.573 85.343 248.78C84.9963 248.987 84.5896 249.09 84.123 249.09ZM84.123 248.44C84.5763 248.44 84.9396 248.28 85.213 247.96C85.4863 247.633 85.623 247.17 85.623 246.57C85.623 245.963 85.4863 245.5 85.213 245.18C84.9396 244.86 84.5763 244.7 84.123 244.7C83.663 244.7 83.2963 244.86 83.023 245.18C82.7563 245.5 82.623 245.963 82.623 246.57C82.623 247.17 82.7563 247.633 83.023 247.96C83.2963 248.28 83.663 248.44 84.123 248.44ZM87.5096 249V244.14H88.2996V244.96C88.4463 244.667 88.6496 244.443 88.9096 244.29C89.1696 244.13 89.4729 244.05 89.8196 244.05C90.5796 244.05 91.0663 244.38 91.2796 245.04C91.4263 244.733 91.6429 244.493 91.9296 244.32C92.2163 244.14 92.5463 244.05 92.9196 244.05C93.9996 244.05 94.5396 244.69 94.5396 245.97V249H93.7296V246.01C93.7296 245.563 93.6496 245.237 93.4896 245.03C93.3363 244.817 93.0796 244.71 92.7196 244.71C92.3263 244.71 92.0129 244.85 91.7796 245.13C91.5463 245.41 91.4296 245.783 91.4296 246.25V249H90.6196V246.01C90.6196 245.563 90.5396 245.237 90.3796 245.03C90.2263 244.817 89.9696 244.71 89.6096 244.71C89.2096 244.71 88.8929 244.85 88.6596 245.13C88.4329 245.41 88.3196 245.783 88.3196 246.25V249H87.5096ZM97.6041 249.09C96.4374 249.09 95.8541 248.447 95.8541 247.16V244.14H96.6641V247.15C96.6641 247.583 96.7507 247.903 96.9241 248.11C97.1041 248.317 97.3841 248.42 97.7641 248.42C98.1774 248.42 98.5141 248.283 98.7741 248.01C99.0341 247.73 99.1641 247.36 99.1641 246.9V244.14H99.9741V249H99.1841V248.18C99.0307 248.473 98.8141 248.7 98.5341 248.86C98.2607 249.013 97.9507 249.09 97.6041 249.09ZM102.96 249.09C102.58 249.09 102.22 249.037 101.88 248.93C101.54 248.823 101.26 248.673 101.04 248.48L101.3 247.91C101.54 248.103 101.803 248.247 102.09 248.34C102.383 248.427 102.68 248.47 102.98 248.47C103.36 248.47 103.646 248.4 103.84 248.26C104.033 248.12 104.13 247.93 104.13 247.69C104.13 247.503 104.066 247.357 103.94 247.25C103.813 247.137 103.613 247.05 103.34 246.99L102.43 246.79C101.603 246.61 101.19 246.183 101.19 245.51C101.19 245.07 101.363 244.717 101.71 244.45C102.063 244.183 102.523 244.05 103.09 244.05C103.423 244.05 103.74 244.103 104.04 244.21C104.346 244.31 104.6 244.46 104.8 244.66L104.53 245.23C104.336 245.05 104.11 244.913 103.85 244.82C103.596 244.72 103.343 244.67 103.09 244.67C102.716 244.67 102.433 244.743 102.24 244.89C102.046 245.037 101.95 245.23 101.95 245.47C101.95 245.843 102.196 246.083 102.69 246.19L103.6 246.38C104.026 246.473 104.35 246.623 104.57 246.83C104.79 247.03 104.9 247.303 104.9 247.65C104.9 248.097 104.723 248.45 104.37 248.71C104.016 248.963 103.546 249.09 102.96 249.09ZM108.154 249.09C107.387 249.09 106.781 248.867 106.334 248.42C105.887 247.967 105.664 247.353 105.664 246.58C105.664 246.08 105.764 245.64 105.964 245.26C106.164 244.873 106.437 244.577 106.784 244.37C107.137 244.157 107.544 244.05 108.004 244.05C108.664 244.05 109.181 244.263 109.554 244.69C109.927 245.11 110.114 245.69 110.114 246.43V246.74H106.454C106.481 247.293 106.641 247.717 106.934 248.01C107.227 248.297 107.634 248.44 108.154 248.44C108.447 248.44 108.727 248.397 108.994 248.31C109.261 248.217 109.514 248.067 109.754 247.86L110.034 248.43C109.814 248.637 109.534 248.8 109.194 248.92C108.854 249.033 108.507 249.09 108.154 249.09ZM108.024 244.65C107.564 244.65 107.201 244.793 106.934 245.08C106.667 245.367 106.511 245.743 106.464 246.21H109.414C109.394 245.717 109.264 245.333 109.024 245.06C108.791 244.787 108.457 244.65 108.024 244.65ZM112.836 249.09C111.67 249.09 111.086 248.447 111.086 247.16V244.14H111.896V247.15C111.896 247.583 111.983 247.903 112.156 248.11C112.336 248.317 112.616 248.42 112.996 248.42C113.41 248.42 113.746 248.283 114.006 248.01C114.266 247.73 114.396 247.36 114.396 246.9V244.14H115.206V249H114.416V248.18C114.263 248.473 114.046 248.7 113.766 248.86C113.493 249.013 113.183 249.09 112.836 249.09ZM116.572 249V244.14H117.362V244.96C117.508 244.667 117.712 244.443 117.972 244.29C118.232 244.13 118.535 244.05 118.882 244.05C119.642 244.05 120.128 244.38 120.342 245.04C120.488 244.733 120.705 244.493 120.992 244.32C121.278 244.14 121.608 244.05 121.982 244.05C123.062 244.05 123.602 244.69 123.602 245.97V249H122.792V246.01C122.792 245.563 122.712 245.237 122.552 245.03C122.398 244.817 122.142 244.71 121.782 244.71C121.388 244.71 121.075 244.85 120.842 245.13C120.608 245.41 120.492 245.783 120.492 246.25V249H119.682V246.01C119.682 245.563 119.602 245.237 119.442 245.03C119.288 244.817 119.032 244.71 118.672 244.71C118.272 244.71 117.955 244.85 117.722 245.13C117.495 245.41 117.382 245.783 117.382 246.25V249H116.572ZM129.036 250.63C128.19 250.63 127.446 250.45 126.806 250.09C126.173 249.737 125.68 249.233 125.326 248.58C124.973 247.927 124.796 247.157 124.796 246.27C124.796 245.617 124.9 245.02 125.106 244.48C125.32 243.94 125.62 243.477 126.006 243.09C126.4 242.697 126.863 242.393 127.396 242.18C127.93 241.967 128.52 241.86 129.166 241.86C129.94 241.86 130.616 242.017 131.196 242.33C131.776 242.637 132.226 243.067 132.546 243.62C132.873 244.173 133.036 244.82 133.036 245.56C133.036 246.14 132.956 246.643 132.796 247.07C132.643 247.497 132.423 247.827 132.136 248.06C131.85 248.293 131.516 248.41 131.136 248.41C130.81 248.41 130.546 248.333 130.346 248.18C130.146 248.02 130.026 247.8 129.986 247.52C129.8 247.813 129.573 248.037 129.306 248.19C129.046 248.337 128.77 248.41 128.476 248.41C127.963 248.41 127.563 248.25 127.276 247.93C126.996 247.603 126.856 247.157 126.856 246.59C126.856 246.103 126.95 245.67 127.136 245.29C127.323 244.903 127.58 244.6 127.906 244.38C128.233 244.16 128.603 244.05 129.016 244.05C129.656 244.05 130.08 244.31 130.286 244.83L130.406 244.14H131.066L130.616 246.73C130.59 246.903 130.576 247.06 130.576 247.2C130.576 247.647 130.776 247.87 131.176 247.87C131.556 247.87 131.866 247.66 132.106 247.24C132.346 246.813 132.466 246.253 132.466 245.56C132.466 244.927 132.326 244.377 132.046 243.91C131.773 243.443 131.39 243.08 130.896 242.82C130.403 242.56 129.823 242.43 129.156 242.43C128.416 242.43 127.766 242.59 127.206 242.91C126.646 243.23 126.21 243.68 125.896 244.26C125.583 244.833 125.426 245.503 125.426 246.27C125.426 247.063 125.573 247.743 125.866 248.31C126.16 248.877 126.576 249.31 127.116 249.61C127.656 249.917 128.296 250.07 129.036 250.07C129.576 250.07 130.063 249.983 130.496 249.81C130.936 249.643 131.3 249.407 131.586 249.1L131.916 249.58C131.59 249.92 131.176 250.18 130.676 250.36C130.183 250.54 129.636 250.63 129.036 250.63ZM128.566 247.83C128.866 247.83 129.13 247.743 129.356 247.57C129.59 247.39 129.773 247.143 129.906 246.83C130.04 246.517 130.106 246.157 130.106 245.75C130.106 245.003 129.766 244.63 129.086 244.63C128.793 244.63 128.53 244.717 128.296 244.89C128.063 245.057 127.876 245.287 127.736 245.58C127.603 245.873 127.536 246.21 127.536 246.59C127.536 246.99 127.626 247.297 127.806 247.51C127.986 247.723 128.24 247.83 128.566 247.83ZM135.669 249L133.579 244.14H134.459L136.069 248.08L137.699 244.14H138.529L136.429 249H135.669ZM141.676 249.09C141.289 249.09 140.949 249.003 140.656 248.83C140.369 248.657 140.152 248.42 140.006 248.12V249H139.216V241.95H140.026V244.98C140.166 244.693 140.382 244.467 140.676 244.3C140.969 244.133 141.302 244.05 141.676 244.05C142.109 244.05 142.486 244.153 142.806 244.36C143.132 244.56 143.382 244.85 143.556 245.23C143.736 245.603 143.826 246.05 143.826 246.57C143.826 247.083 143.736 247.53 143.556 247.91C143.382 248.283 143.132 248.573 142.806 248.78C142.486 248.987 142.109 249.09 141.676 249.09ZM141.506 248.44C141.959 248.44 142.322 248.28 142.596 247.96C142.869 247.633 143.006 247.17 143.006 246.57C143.006 245.963 142.869 245.5 142.596 245.18C142.322 244.86 141.959 244.7 141.506 244.7C141.052 244.7 140.689 244.86 140.416 245.18C140.142 245.5 140.006 245.963 140.006 246.57C140.006 247.17 140.142 247.633 140.416 247.96C140.689 248.28 141.052 248.44 141.506 248.44ZM146.366 249.09C145.872 249.09 145.499 248.947 145.246 248.66C144.999 248.367 144.876 247.943 144.876 247.39V241.95H145.686V247.33C145.686 248.043 145.969 248.4 146.536 248.4C146.702 248.4 146.852 248.38 146.986 248.34L146.966 249.02C146.759 249.067 146.559 249.09 146.366 249.09Z" fill="black"/>
<g clip-path="url(#clip0_369_824)">
<path d="M54.3188 100.181H51.1783V103.321H54.3188V100.181Z" fill="black"/>
<path d="M57.4594 100.181H54.3188V103.321H57.4594V100.181Z" fill="black"/>
<path d="M60.5999 100.181H57.4594V103.321H60.5999V100.181Z" fill="black"/>
<path d="M63.7404 100.181H60.5999V103.321H63.7404V100.181Z" fill="black"/>
<path d="M66.881 100.181H63.7404V103.321H66.881V100.181Z" fill="black"/>
<path d="M70.0215 100.181H66.881V103.321H70.0215V100.181Z" fill="black"/>
<path d="M73.162 100.181H70.0215V103.321H73.162V100.181Z" fill="black"/>
<path d="M79.4431 100.181H76.3025V103.321H79.4431V100.181Z" fill="black"/>
<path d="M85.7241 100.181H82.5836V103.321H85.7241V100.181Z" fill="black"/>
<path d="M88.8647 100.181H85.7241V103.321H88.8647V100.181Z" fill="black"/>
<path d="M92.0052 100.181H88.8647V103.321H92.0052V100.181Z" fill="black"/>
<path d="M98.2862 100.181H95.1457V103.321H98.2862V100.181Z" fill="black"/>
<path d="M104.567 100.181H101.427V103.321H104.567V100.181Z" fill="black"/>
<path d="M113.989 100.181H110.848V103.321H113.989V100.181Z" fill="black"/>
<path d="M123.41 100.181H120.27V103.321H123.41V100.181Z" fill="black"/>
<path d="M129.692 100.181H126.551V103.321H129.692V100.181Z" fill="black"/>
<path d="M135.973 100.181H132.832V103.321H135.973V100.181Z" fill="black"/>
<path d="M139.113 100.181H135.973V103.321H139.113V100.181Z" fill="black"/>
<path d="M142.254 100.181H139.113V103.321H142.254V100.181Z" fill="black"/>
<path d="M145.394 100.181H142.254V103.321H145.394V100.181Z" fill="black"/>
<path d="M148.535 100.181H145.394V103.321H148.535V100.181Z" fill="black"/>
<path d="M151.675 100.181H148.535V103.321H151.675V100.181Z" fill="black"/>
<path d="M154.816 100.181H151.675V103.321H154.816V100.181Z" fill="black"/>
<path d="M54.3188 103.321H51.1783V106.462H54.3188V103.321Z" fill="black"/>
<path d="M73.162 103.321H70.0215V106.462H73.162V103.321Z" fill="black"/>
<path d="M85.7241 103.321H82.5836V106.462H85.7241V103.321Z" fill="black"/>
<path d="M88.8647 103.321H85.7241V106.462H88.8647V103.321Z" fill="black"/>
<path d="M92.0052 103.321H88.8647V106.462H92.0052V103.321Z" fill="black"/>
<path d="M95.1457 103.321H92.0052V106.462H95.1457V103.321Z" fill="black"/>
<path d="M98.2862 103.321H95.1457V106.462H98.2862V103.321Z" fill="black"/>
<path d="M104.567 103.321H101.427V106.462H104.567V103.321Z" fill="black"/>
<path d="M107.708 103.321H104.567V106.462H107.708V103.321Z" fill="black"/>
<path d="M110.848 103.321H107.708V106.462H110.848L110.848 103.321Z" fill="black"/>
<path d="M113.989 103.321H110.848L110.848 106.462H113.989V103.321Z" fill="black"/>
<path d="M123.41 103.321H120.27V106.462H123.41V103.321Z" fill="black"/>
<path d="M126.551 103.321H123.41V106.462H126.551V103.321Z" fill="black"/>
<path d="M135.973 103.321H132.832V106.462H135.973V103.321Z" fill="black"/>
<path d="M154.816 103.321H151.675V106.462H154.816V103.321Z" fill="black"/>
<path d="M54.3188 106.462H51.1783V109.602H54.3188V106.462Z" fill="black"/>
<path d="M60.5999 106.462H57.4594V109.602H60.5999V106.462Z" fill="black"/>
<path d="M63.7404 106.462H60.5999V109.602H63.7404V106.462Z" fill="black"/>
<path d="M66.881 106.462H63.7404V109.602H66.881V106.462Z" fill="black"/>
<path d="M73.162 106.462H70.0215V109.602H73.162V106.462Z" fill="black"/>
<path d="M85.7241 106.462H82.5836V109.602H85.7241V106.462Z" fill="black"/>
<path d="M88.8647 106.462H85.7241V109.602H88.8647V106.462Z" fill="black"/>
<path d="M98.2862 106.462H95.1457V109.602H98.2862V106.462Z" fill="black"/>
<path d="M101.427 106.462H98.2862V109.602H101.427V106.462Z" fill="black"/>
<path d="M104.567 106.462H101.427V109.602H104.567V106.462Z" fill="black"/>
<path d="M107.708 106.462H104.567V109.602H107.708V106.462Z" fill="black"/>
<path d="M113.989 106.462H110.848L110.848 109.602H113.989V106.462Z" fill="black"/>
<path d="M126.551 106.462H123.41V109.602H126.551V106.462Z" fill="black"/>
<path d="M135.973 106.462H132.832V109.602H135.973V106.462Z" fill="black"/>
<path d="M142.254 106.462H139.113V109.602H142.254V106.462Z" fill="black"/>
<path d="M145.394 106.462H142.254V109.602H145.394V106.462Z" fill="black"/>
<path d="M148.535 106.462H145.394V109.602H148.535V106.462Z" fill="black"/>
<path d="M154.816 106.462H151.675V109.602H154.816V106.462Z" fill="black"/>
<path d="M54.3188 109.602H51.1783V112.743H54.3188V109.602Z" fill="black"/>
<path d="M60.5999 109.602H57.4594V112.743H60.5999V109.602Z" fill="black"/>
<path d="M63.7404 109.602H60.5999V112.743H63.7404V109.602Z" fill="black"/>
<path d="M66.881 109.602H63.7404V112.743H66.881V109.602Z" fill="black"/>
<path d="M73.162 109.602H70.0215V112.743H73.162V109.602Z" fill="black"/>
<path d="M79.4431 109.602H76.3025V112.743H79.4431V109.602Z" fill="black"/>
<path d="M82.5836 109.602H79.4431V112.743H82.5836V109.602Z" fill="black"/>
<path d="M92.0052 109.602H88.8647V112.743H92.0052V109.602Z" fill="black"/>
<path d="M95.1457 109.602H92.0052V112.743H95.1457V109.602Z" fill="black"/>
<path d="M104.567 109.602H101.427V112.743H104.567V109.602Z" fill="black"/>
<path d="M107.708 109.602H104.567V112.743H107.708V109.602Z" fill="black"/>
<path d="M117.129 109.602H113.989V112.743H117.129V109.602Z" fill="black"/>
<path d="M129.692 109.602H126.551V112.743H129.692V109.602Z" fill="black"/>
<path d="M135.973 109.602H132.832V112.743H135.973V109.602Z" fill="black"/>
<path d="M142.254 109.602H139.113V112.743H142.254V109.602Z" fill="black"/>
<path d="M145.394 109.602H142.254V112.743H145.394V109.602Z" fill="black"/>
<path d="M148.535 109.602H145.394V112.743H148.535V109.602Z" fill="black"/>
<path d="M154.816 109.602H151.675V112.743H154.816V109.602Z" fill="black"/>
<path d="M54.3188 112.743H51.1783V115.883H54.3188V112.743Z" fill="black"/>
<path d="M60.5999 112.743H57.4594V115.883H60.5999V112.743Z" fill="black"/>
<path d="M63.7404 112.743H60.5999V115.883H63.7404V112.743Z" fill="black"/>
<path d="M66.881 112.743H63.7404V115.883H66.881V112.743Z" fill="black"/>
<path d="M73.162 112.743H70.0215V115.883H73.162V112.743Z" fill="black"/>
<path d="M85.7241 112.743H82.5836V115.883H85.7241V112.743Z" fill="black"/>
<path d="M88.8647 112.743H85.7241V115.883H88.8647V112.743Z" fill="black"/>
<path d="M95.1457 112.743H92.0052V115.883H95.1457V112.743Z" fill="black"/>
<path d="M98.2862 112.743H95.1457V115.883H98.2862V112.743Z" fill="black"/>
<path d="M110.848 112.743H107.708V115.883H110.848V112.743Z" fill="black"/>
<path d="M113.989 112.743H110.848V115.883H113.989V112.743Z" fill="black"/>
<path d="M120.27 112.743H117.129V115.883H120.27V112.743Z" fill="black"/>
<path d="M123.41 112.743H120.27V115.883H123.41V112.743Z" fill="black"/>
<path d="M126.551 112.743H123.41V115.883H126.551V112.743Z" fill="black"/>
<path d="M129.692 112.743H126.551V115.883H129.692V112.743Z" fill="black"/>
<path d="M135.973 112.743H132.832V115.883H135.973V112.743Z" fill="black"/>
<path d="M142.254 112.743H139.113V115.883H142.254V112.743Z" fill="black"/>
<path d="M145.394 112.743H142.254V115.883H145.394V112.743Z" fill="black"/>
<path d="M148.535 112.743H145.394V115.883H148.535V112.743Z" fill="black"/>
<path d="M154.816 112.743H151.675V115.883H154.816V112.743Z" fill="black"/>
<path d="M54.3188 115.883H51.1783V119.024H54.3188V115.883Z" fill="black"/>
<path d="M73.162 115.883H70.0215V119.024H73.162V115.883Z" fill="black"/>
<path d="M79.4431 115.883H76.3025V119.024H79.4431V115.883Z" fill="black"/>
<path d="M88.8647 115.883H85.7241V119.024H88.8647V115.883Z" fill="black"/>
<path d="M101.427 115.883H98.2862V119.024H101.427V115.883Z" fill="black"/>
<path d="M107.708 115.883H104.567V119.024H107.708V115.883Z" fill="black"/>
<path d="M113.989 115.883H110.848L110.848 119.024H113.989V115.883Z" fill="black"/>
<path d="M120.27 115.883H117.129V119.024H120.27V115.883Z" fill="black"/>
<path d="M123.41 115.883H120.27V119.024H123.41V115.883Z" fill="black"/>
<path d="M126.551 115.883H123.41V119.024H126.551V115.883Z" fill="black"/>
<path d="M135.973 115.883H132.832V119.024H135.973V115.883Z" fill="black"/>
<path d="M154.816 115.883H151.675V119.024H154.816V115.883Z" fill="black"/>
<path d="M54.3188 119.024H51.1783V122.164H54.3188V119.024Z" fill="black"/>
<path d="M57.4594 119.024H54.3188V122.164H57.4594V119.024Z" fill="black"/>
<path d="M60.5999 119.024H57.4594V122.164H60.5999V119.024Z" fill="black"/>
<path d="M63.7404 119.024H60.5999V122.164H63.7404V119.024Z" fill="black"/>
<path d="M66.881 119.024H63.7404V122.164H66.881V119.024Z" fill="black"/>
<path d="M70.0215 119.024H66.881V122.164H70.0215V119.024Z" fill="black"/>
<path d="M73.162 119.024H70.0215V122.164H73.162V119.024Z" fill="black"/>
<path d="M79.4431 119.024H76.3025V122.164H79.4431V119.024Z" fill="black"/>
<path d="M85.7241 119.024H82.5836V122.164H85.7241V119.024Z" fill="black"/>
<path d="M92.0052 119.024H88.8647V122.164H92.0052V119.024Z" fill="black"/>
<path d="M98.2862 119.024H95.1457V122.164H98.2862V119.024Z" fill="black"/>
<path d="M104.567 119.024H101.427V122.164H104.567V119.024Z" fill="black"/>
<path d="M110.848 119.024H107.708V122.164H110.848L110.848 119.024Z" fill="black"/>
<path d="M117.129 119.024H113.989V122.164H117.129V119.024Z" fill="black"/>
<path d="M123.41 119.024H120.27V122.164H123.41V119.024Z" fill="black"/>
<path d="M129.692 119.024H126.551V122.164H129.692V119.024Z" fill="black"/>
<path d="M135.973 119.024H132.832V122.164H135.973V119.024Z" fill="black"/>
<path d="M139.113 119.024H135.973V122.164H139.113V119.024Z" fill="black"/>
<path d="M142.254 119.024H139.113V122.164H142.254V119.024Z" fill="black"/>
<path d="M145.394 119.024H142.254V122.164H145.394V119.024Z" fill="black"/>
<path d="M148.535 119.024H145.394V122.164H148.535V119.024Z" fill="black"/>
<path d="M151.675 119.024H148.535V122.164H151.675V119.024Z" fill="black"/>
<path d="M154.816 119.024H151.675V122.164H154.816V119.024Z" fill="black"/>
<path d="M88.8647 122.164H85.7241V125.305H88.8647V122.164Z" fill="black"/>
<path d="M92.0052 122.164H88.8647V125.305H92.0052V122.164Z" fill="black"/>
<path d="M98.2862 122.164H95.1457V125.305H98.2862V122.164Z" fill="black"/>
<path d="M101.427 122.164H98.2862V125.305H101.427V122.164Z" fill="black"/>
<path d="M107.708 122.164H104.567V125.305H107.708V122.164Z" fill="black"/>
<path d="M113.989 122.164H110.848L110.848 125.305H113.989V122.164Z" fill="black"/>
<path d="M117.129 122.164H113.989V125.305H117.129V122.164Z" fill="black"/>
<path d="M123.41 122.164H120.27V125.305H123.41V122.164Z" fill="black"/>
<path d="M129.692 122.164H126.551V125.305H129.692V122.164Z" fill="black"/>
<path d="M70.0215 125.305H66.881V128.446H70.0215V125.305Z" fill="black"/>
<path d="M73.162 125.305H70.0215V128.446H73.162V125.305Z" fill="black"/>
<path d="M79.4431 125.305H76.3025V128.446H79.4431V125.305Z" fill="black"/>
<path d="M82.5836 125.305H79.4431V128.446H82.5836V125.305Z" fill="black"/>
<path d="M85.7241 125.305H82.5836V128.446H85.7241V125.305Z" fill="black"/>
<path d="M92.0052 125.305H88.8647V128.446H92.0052V125.305Z" fill="black"/>
<path d="M98.2862 125.305H95.1457V128.446H98.2862V125.305Z" fill="black"/>
<path d="M104.567 125.305H101.427V128.446H104.567V125.305Z" fill="black"/>
<path d="M110.848 125.305H107.708V128.446H110.848L110.848 125.305Z" fill="black"/>
<path d="M117.129 125.305H113.989V128.446H117.129V125.305Z" fill="black"/>
<path d="M120.27 125.305H117.129V128.446H120.27V125.305Z" fill="black"/>
<path d="M123.41 125.305H120.27V128.446H123.41V125.305Z" fill="black"/>
<path d="M132.832 125.305H129.692V128.446H132.832V125.305Z" fill="black"/>
<path d="M139.113 125.305H135.973V128.446H139.113V125.305Z" fill="black"/>
<path d="M145.394 125.305H142.254V128.446H145.394V125.305Z" fill="black"/>
<path d="M154.816 125.305H151.675V128.446H154.816V125.305Z" fill="black"/>
<path d="M54.3188 128.446H51.1783V131.586H54.3188V128.446Z" fill="black"/>
<path d="M63.7404 128.446H60.5999V131.586H63.7404V128.446Z" fill="black"/>
<path d="M79.4431 128.446H76.3025V131.586H79.4431V128.446Z" fill="black"/>
<path d="M82.5836 128.446H79.4431V131.586H82.5836V128.446Z" fill="black"/>
<path d="M88.8647 128.446H85.7241V131.586H88.8647V128.446Z" fill="black"/>
<path d="M92.0052 128.446H88.8647V131.586H92.0052V128.446Z" fill="black"/>
<path d="M101.427 128.446H98.2862V131.586H101.427V128.446Z" fill="black"/>
<path d="M104.567 128.446H101.427V131.586H104.567V128.446Z" fill="black"/>
<path d="M107.708 128.446H104.567V131.586H107.708V128.446Z" fill="black"/>
<path d="M126.551 128.446H123.41V131.586H126.551V128.446Z" fill="black"/>
<path d="M132.832 128.446H129.692V131.586H132.832V128.446Z" fill="black"/>
<path d="M135.973 128.446H132.832V131.586H135.973V128.446Z" fill="black"/>
<path d="M139.113 128.446H135.973V131.586H139.113V128.446Z" fill="black"/>
<path d="M154.816 128.446H151.675V131.586H154.816V128.446Z" fill="black"/>
<path d="M66.881 131.586H63.7404V134.727H66.881V131.586Z" fill="black"/>
<path d="M73.162 131.586H70.0215V134.727H73.162V131.586Z" fill="black"/>
<path d="M79.4431 131.586H76.3025V134.727H79.4431V131.586Z" fill="black"/>
<path d="M82.5836 131.586H79.4431V134.727H82.5836V131.586Z" fill="black"/>
<path d="M85.7241 131.586H82.5836V134.727H85.7241V131.586Z" fill="black"/>
<path d="M98.2862 131.586H95.1457V134.727H98.2862V131.586Z" fill="black"/>
<path d="M101.427 131.586H98.2862V134.727H101.427V131.586Z" fill="black"/>
<path d="M107.708 131.586H104.567V134.727H107.708V131.586Z" fill="black"/>
<path d="M110.848 131.586H107.708V134.727H110.848V131.586Z" fill="black"/>
<path d="M120.27 131.586H117.129V134.727H120.27V131.586Z" fill="black"/>
<path d="M126.551 131.586H123.41V134.727H126.551V131.586Z" fill="black"/>
<path d="M129.692 131.586H126.551V134.727H129.692V131.586Z" fill="black"/>
<path d="M145.394 131.586H142.254V134.727H145.394V131.586Z" fill="black"/>
<path d="M148.535 131.586H145.394V134.727H148.535V131.586Z" fill="black"/>
<path d="M151.675 131.586H148.535V134.727H151.675V131.586Z" fill="black"/>
<path d="M57.4594 134.727H54.3188V137.867H57.4594V134.727Z" fill="black"/>
<path d="M60.5999 134.727H57.4594V137.867H60.5999V134.727Z" fill="black"/>
<path d="M76.3025 134.727H73.162V137.867H76.3025V134.727Z" fill="black"/>
<path d="M82.5836 134.727H79.4431V137.867H82.5836V134.727Z" fill="black"/>
<path d="M85.7241 134.727H82.5836V137.867H85.7241V134.727Z" fill="black"/>
<path d="M88.8647 134.727H85.7241V137.867H88.8647V134.727Z" fill="black"/>
<path d="M92.0052 134.727H88.8647V137.867H92.0052V134.727Z" fill="black"/>
<path d="M104.567 134.727H101.427V137.867H104.567V134.727Z" fill="black"/>
<path d="M107.708 134.727H104.567V137.867H107.708V134.727Z" fill="black"/>
<path d="M110.848 134.727H107.708V137.867H110.848V134.727Z" fill="black"/>
<path d="M113.989 134.727H110.848V137.867H113.989V134.727Z" fill="black"/>
<path d="M120.27 134.727H117.129V137.867H120.27V134.727Z" fill="black"/>
<path d="M129.692 134.727H126.551V137.867H129.692V134.727Z" fill="black"/>
<path d="M139.113 134.727H135.973V137.867H139.113V134.727Z" fill="black"/>
<path d="M145.394 134.727H142.254V137.867H145.394V134.727Z" fill="black"/>
<path d="M148.535 134.727H145.394V137.867H148.535V134.727Z" fill="black"/>
<path d="M151.675 134.727H148.535V137.867H151.675V134.727Z" fill="black"/>
<path d="M60.5999 137.867H57.4594V141.008H60.5999V137.867Z" fill="black"/>
<path d="M66.881 137.867H63.7404V141.008H66.881V137.867Z" fill="black"/>
<path d="M73.162 137.867H70.0215V141.008H73.162V137.867Z" fill="black"/>
<path d="M88.8647 137.867H85.7241V141.008H88.8647V137.867Z" fill="black"/>
<path d="M98.2862 137.867H95.1457V141.008H98.2862V137.867Z" fill="black"/>
<path d="M107.708 137.867H104.567V141.008H107.708V137.867Z" fill="black"/>
<path d="M117.129 137.867H113.989V141.008H117.129V137.867Z" fill="black"/>
<path d="M120.27 137.867H117.129V141.008H120.27V137.867Z" fill="black"/>
<path d="M132.832 137.867H129.692V141.008H132.832V137.867Z" fill="black"/>
<path d="M142.254 137.867H139.113V141.008H142.254V137.867Z" fill="black"/>
<path d="M145.394 137.867H142.254V141.008H145.394V137.867Z" fill="black"/>
<path d="M63.7404 141.008H60.5999V144.148H63.7404V141.008Z" fill="black"/>
<path d="M66.881 141.008H63.7404V144.148H66.881V141.008Z" fill="black"/>
<path d="M70.0215 141.008H66.881V144.148H70.0215V141.008Z" fill="black"/>
<path d="M79.4431 141.008H76.3025V144.148H79.4431V141.008Z" fill="black"/>
<path d="M95.1457 141.008H92.0052V144.148H95.1457V141.008Z" fill="black"/>
<path d="M101.427 141.008H98.2862V144.148H101.427V141.008Z" fill="black"/>
<path d="M104.567 141.008H101.427V144.148H104.567V141.008Z" fill="black"/>
<path d="M117.129 141.008H113.989V144.148H117.129V141.008Z" fill="black"/>
<path d="M126.551 141.008H123.41V144.148H126.551V141.008Z" fill="black"/>
<path d="M129.692 141.008H126.551V144.148H129.692V141.008Z" fill="black"/>
<path d="M132.832 141.008H129.692V144.148H132.832V141.008Z" fill="black"/>
<path d="M142.254 141.008H139.113V144.148H142.254V141.008Z" fill="black"/>
<path d="M60.5999 144.148H57.4594V147.289H60.5999V144.148Z" fill="black"/>
<path d="M73.162 144.148H70.0215V147.289H73.162V144.148Z" fill="black"/>
<path d="M76.3025 144.148H73.162V147.289H76.3025V144.148Z" fill="black"/>
<path d="M82.5836 144.148H79.4431V147.289H82.5836V144.148Z" fill="black"/>
<path d="M88.8647 144.148H85.7241V147.289H88.8647V144.148Z" fill="black"/>
<path d="M98.2862 144.148H95.1457V147.289H98.2862V144.148Z" fill="black"/>
<path d="M123.41 144.148H120.27V147.289H123.41V144.148Z" fill="black"/>
<path d="M126.551 144.148H123.41V147.289H126.551V144.148Z" fill="black"/>
<path d="M132.832 144.148H129.692V147.289H132.832V144.148Z" fill="black"/>
<path d="M135.973 144.148H132.832V147.289H135.973V144.148Z" fill="black"/>
<path d="M139.113 144.148H135.973V147.289H139.113V144.148Z" fill="black"/>
<path d="M142.254 144.148H139.113V147.289H142.254V144.148Z" fill="black"/>
<path d="M145.394 144.148H142.254V147.289H145.394V144.148Z" fill="black"/>
<path d="M54.3188 147.289H51.1783V150.429H54.3188V147.289Z" fill="black"/>
<path d="M57.4594 147.289H54.3188V150.429H57.4594V147.289Z" fill="black"/>
<path d="M79.4431 147.289H76.3025V150.429H79.4431V147.289Z" fill="black"/>
<path d="M88.8647 147.289H85.7241V150.429H88.8647V147.289Z" fill="black"/>
<path d="M95.1457 147.289H92.0052V150.429H95.1457V147.289Z" fill="black"/>
<path d="M101.427 147.289H98.2862V150.429H101.427V147.289Z" fill="black"/>
<path d="M120.27 147.289H117.129V150.429H120.27V147.289Z" fill="black"/>
<path d="M123.41 147.289H120.27V150.429H123.41V147.289Z" fill="black"/>
<path d="M129.692 147.289H126.551V150.429H129.692V147.289Z" fill="black"/>
<path d="M139.113 147.289H135.973V150.429H139.113V147.289Z" fill="black"/>
<path d="M145.394 147.289H142.254V150.429H145.394V147.289Z" fill="black"/>
<path d="M151.675 147.289H148.535V150.429H151.675V147.289Z" fill="black"/>
<path d="M54.3188 150.429H51.1783V153.57H54.3188V150.429Z" fill="black"/>
<path d="M57.4594 150.429H54.3188V153.57H57.4594V150.429Z" fill="black"/>
<path d="M60.5999 150.429H57.4594V153.57H60.5999V150.429Z" fill="black"/>
<path d="M66.881 150.429H63.7404V153.57H66.881V150.429Z" fill="black"/>
<path d="M73.162 150.429H70.0215V153.57H73.162V150.429Z" fill="black"/>
<path d="M85.7241 150.429H82.5836V153.57H85.7241V150.429Z" fill="black"/>
<path d="M88.8647 150.429H85.7241V153.57H88.8647V150.429Z" fill="black"/>
<path d="M95.1457 150.429H92.0052V153.57H95.1457V150.429Z" fill="black"/>
<path d="M104.567 150.429H101.427V153.57H104.567V150.429Z" fill="black"/>
<path d="M117.129 150.429H113.989V153.57H117.129V150.429Z" fill="black"/>
<path d="M120.27 150.429H117.129V153.57H120.27V150.429Z" fill="black"/>
<path d="M126.551 150.429H123.41V153.57H126.551V150.429Z" fill="black"/>
<path d="M132.832 150.429H129.692V153.57H132.832V150.429Z" fill="black"/>
<path d="M139.113 150.429H135.973V153.57H139.113V150.429Z" fill="black"/>
<path d="M142.254 150.429H139.113V153.57H142.254V150.429Z" fill="black"/>
<path d="M151.675 150.429H148.535V153.57H151.675V150.429Z" fill="black"/>
<path d="M57.4594 153.57H54.3188V156.71H57.4594V153.57Z" fill="black"/>
<path d="M60.5999 153.57H57.4594V156.71H60.5999V153.57Z" fill="black"/>
<path d="M63.7404 153.57H60.5999V156.71H63.7404V153.57Z" fill="black"/>
<path d="M76.3025 153.57H73.162V156.71H76.3025V153.57Z" fill="black"/>
<path d="M85.7241 153.57H82.5836V156.71H85.7241V153.57Z" fill="black"/>
<path d="M88.8647 153.57H85.7241V156.71H88.8647V153.57Z" fill="black"/>
<path d="M95.1457 153.57H92.0052V156.71H95.1457V153.57Z" fill="black"/>
<path d="M98.2862 153.57H95.1457V156.71H98.2862V153.57Z" fill="black"/>
<path d="M101.427 153.57H98.2862V156.71H101.427V153.57Z" fill="black"/>
<path d="M104.567 153.57H101.427V156.71H104.567V153.57Z" fill="black"/>
<path d="M113.989 153.57H110.848V156.71H113.989V153.57Z" fill="black"/>
<path d="M117.129 153.57H113.989V156.71H117.129V153.57Z" fill="black"/>
<path d="M129.692 153.57H126.551V156.71H129.692V153.57Z" fill="black"/>
<path d="M148.535 153.57H145.394V156.71H148.535V153.57Z" fill="black"/>
<path d="M151.675 153.57H148.535V156.71H151.675V153.57Z" fill="black"/>
<path d="M54.3188 156.71H51.1783V159.851H54.3188V156.71Z" fill="black"/>
<path d="M73.162 156.71H70.0215V159.851H73.162V156.71Z" fill="black"/>
<path d="M79.4431 156.71H76.3025V159.851H79.4431V156.71Z" fill="black"/>
<path d="M82.5836 156.71H79.4431V159.851H82.5836V156.71Z" fill="black"/>
<path d="M98.2862 156.71H95.1457V159.851H98.2862V156.71Z" fill="black"/>
<path d="M104.567 156.71H101.427V159.851H104.567V156.71Z" fill="black"/>
<path d="M107.708 156.71H104.567V159.851H107.708V156.71Z" fill="black"/>
<path d="M110.848 156.71H107.708V159.851H110.848L110.848 156.71Z" fill="black"/>
<path d="M113.989 156.71H110.848L110.848 159.851H113.989V156.71Z" fill="black"/>
<path d="M117.129 156.71H113.989V159.851H117.129V156.71Z" fill="black"/>
<path d="M120.27 156.71H117.129V159.851H120.27V156.71Z" fill="black"/>
<path d="M123.41 156.71H120.27V159.851H123.41V156.71Z" fill="black"/>
<path d="M129.692 156.71H126.551V159.851H129.692V156.71Z" fill="black"/>
<path d="M132.832 156.71H129.692V159.851H132.832V156.71Z" fill="black"/>
<path d="M151.675 156.71H148.535V159.851H151.675V156.71Z" fill="black"/>
<path d="M154.816 156.71H151.675V159.851H154.816V156.71Z" fill="black"/>
<path d="M54.3188 159.851H51.1783V162.991H54.3188V159.851Z" fill="black"/>
<path d="M60.5999 159.851H57.4594V162.991H60.5999V159.851Z" fill="black"/>
<path d="M66.881 159.851H63.7404V162.991H66.881V159.851Z" fill="black"/>
<path d="M76.3025 159.851H73.162V162.991H76.3025V159.851Z" fill="black"/>
<path d="M79.4431 159.851H76.3025V162.991H79.4431V159.851Z" fill="black"/>
<path d="M85.7241 159.851L82.5836 159.851V162.991H85.7241V159.851Z" fill="black"/>
<path d="M88.8647 159.851H85.7241V162.991H88.8647V159.851Z" fill="black"/>
<path d="M101.427 159.851H98.2862V162.991H101.427V159.851Z" fill="black"/>
<path d="M104.567 159.851H101.427V162.991H104.567V159.851Z" fill="black"/>
<path d="M117.129 159.851H113.989V162.991H117.129V159.851Z" fill="black"/>
<path d="M120.27 159.851H117.129V162.991H120.27V159.851Z" fill="black"/>
<path d="M129.692 159.851H126.551V162.991H129.692V159.851Z" fill="black"/>
<path d="M132.832 159.851H129.692V162.991H132.832V159.851Z" fill="black"/>
<path d="M142.254 159.851H139.113V162.991H142.254V159.851Z" fill="black"/>
<path d="M145.394 159.851H142.254V162.991H145.394V159.851Z" fill="black"/>
<path d="M54.3188 162.991H51.1783V166.132H54.3188V162.991Z" fill="black"/>
<path d="M60.5999 162.991H57.4594V166.132H60.5999V162.991Z" fill="black"/>
<path d="M70.0215 162.991H66.881V166.132H70.0215V162.991Z" fill="black"/>
<path d="M73.162 162.991H70.0215V166.132H73.162V162.991Z" fill="black"/>
<path d="M76.3025 162.991H73.162V166.132H76.3025V162.991Z" fill="black"/>
<path d="M85.7241 162.991H82.5836V166.132H85.7241V162.991Z" fill="black"/>
<path d="M98.2862 162.991H95.1457V166.132H98.2862V162.991Z" fill="black"/>
<path d="M120.27 162.991H117.129V166.132H120.27V162.991Z" fill="black"/>
<path d="M123.41 162.991H120.27V166.132H123.41V162.991Z" fill="black"/>
<path d="M129.692 162.991H126.551V166.132H129.692V162.991Z" fill="black"/>
<path d="M132.832 162.991H129.692V166.132H132.832V162.991Z" fill="black"/>
<path d="M139.113 162.991H135.973V166.132H139.113V162.991Z" fill="black"/>
<path d="M145.394 162.991H142.254V166.132H145.394V162.991Z" fill="black"/>
<path d="M154.816 162.991H151.675V166.132H154.816V162.991Z" fill="black"/>
<path d="M57.4594 166.132H54.3188V169.272H57.4594V166.132Z" fill="black"/>
<path d="M63.7404 166.132H60.5999V169.272H63.7404V166.132Z" fill="black"/>
<path d="M76.3025 166.132H73.162V169.272H76.3025V166.132Z" fill="black"/>
<path d="M79.4431 166.132H76.3025V169.272H79.4431V166.132Z" fill="black"/>
<path d="M85.7241 166.132H82.5836V169.272H85.7241V166.132Z" fill="black"/>
<path d="M95.1457 166.132H92.0052V169.272H95.1457V166.132Z" fill="black"/>
<path d="M101.427 166.132H98.2862V169.272H101.427V166.132Z" fill="black"/>
<path d="M104.567 166.132H101.427V169.272H104.567V166.132Z" fill="black"/>
<path d="M107.708 166.132H104.567V169.272H107.708V166.132Z" fill="black"/>
<path d="M113.989 166.132H110.848V169.272H113.989V166.132Z" fill="black"/>
<path d="M120.27 166.132H117.129V169.272H120.27V166.132Z" fill="black"/>
<path d="M126.551 166.132H123.41V169.272H126.551V166.132Z" fill="black"/>
<path d="M129.692 166.132H126.551V169.272H129.692V166.132Z" fill="black"/>
<path d="M135.973 166.132H132.832V169.272H135.973V166.132Z" fill="black"/>
<path d="M145.394 166.132H142.254V169.272H145.394V166.132Z" fill="black"/>
<path d="M151.675 166.132H148.535V169.272H151.675V166.132Z" fill="black"/>
<path d="M154.816 166.132H151.675V169.272H154.816V166.132Z" fill="black"/>
<path d="M57.4594 169.272H54.3188V172.413H57.4594V169.272Z" fill="black"/>
<path d="M66.881 169.272H63.7404V172.413H66.881V169.272Z" fill="black"/>
<path d="M73.162 169.272H70.0215V172.413H73.162V169.272Z" fill="black"/>
<path d="M79.4431 169.272H76.3025V172.413H79.4431V169.272Z" fill="black"/>
<path d="M85.7241 169.272H82.5836V172.413H85.7241V169.272Z" fill="black"/>
<path d="M95.1457 169.272H92.0052V172.413H95.1457V169.272Z" fill="black"/>
<path d="M98.2862 169.272H95.1457V172.413H98.2862V169.272Z" fill="black"/>
<path d="M104.567 169.272H101.427V172.413H104.567V169.272Z" fill="black"/>
<path d="M110.848 169.272H107.708V172.413H110.848L110.848 169.272Z" fill="black"/>
<path d="M117.129 169.272H113.989V172.413H117.129V169.272Z" fill="black"/>
<path d="M120.27 169.272H117.129V172.413H120.27V169.272Z" fill="black"/>
<path d="M123.41 169.272H120.27V172.413H123.41V169.272Z" fill="black"/>
<path d="M132.832 169.272H129.692V172.413H132.832V169.272Z" fill="black"/>
<path d="M142.254 169.272H139.113V172.413H142.254V169.272Z" fill="black"/>
<path d="M54.3188 172.413H51.1783V175.553H54.3188V172.413Z" fill="black"/>
<path d="M57.4594 172.413H54.3188V175.553H57.4594V172.413Z" fill="black"/>
<path d="M60.5999 172.413H57.4594V175.553H60.5999V172.413Z" fill="black"/>
<path d="M70.0215 172.413H66.881V175.553H70.0215V172.413Z" fill="black"/>
<path d="M95.1457 172.413H92.0052V175.553H95.1457V172.413Z" fill="black"/>
<path d="M98.2862 172.413H95.1457V175.553H98.2862V172.413Z" fill="black"/>
<path d="M104.567 172.413H101.427V175.553H104.567V172.413Z" fill="black"/>
<path d="M107.708 172.413H104.567V175.553H107.708V172.413Z" fill="black"/>
<path d="M117.129 172.413H113.989V175.553H117.129V172.413Z" fill="black"/>
<path d="M126.551 172.413H123.41V175.553H126.551V172.413Z" fill="black"/>
<path d="M129.692 172.413H126.551V175.553H129.692V172.413Z" fill="black"/>
<path d="M145.394 172.413H142.254V175.553H145.394V172.413Z" fill="black"/>
<path d="M151.675 172.413H148.535V175.553H151.675V172.413Z" fill="black"/>
<path d="M57.4594 175.553H54.3188V178.694H57.4594V175.553Z" fill="black"/>
<path d="M60.5999 175.553H57.4594V178.694H60.5999V175.553Z" fill="black"/>
<path d="M73.162 175.553H70.0215V178.694H73.162V175.553Z" fill="black"/>
<path d="M76.3025 175.553H73.162V178.694H76.3025V175.553Z" fill="black"/>
<path d="M79.4431 175.553H76.3025V178.694H79.4431V175.553Z" fill="black"/>
<path d="M82.5836 175.553H79.4431V178.694H82.5836V175.553Z" fill="black"/>
<path d="M85.7241 175.553H82.5836V178.694H85.7241V175.553Z" fill="black"/>
<path d="M92.0052 175.553H88.8647V178.694H92.0052V175.553Z" fill="black"/>
<path d="M98.2862 175.553H95.1457V178.694H98.2862V175.553Z" fill="black"/>
<path d="M104.567 175.553H101.427V178.694H104.567V175.553Z" fill="black"/>
<path d="M117.129 175.553H113.989V178.694H117.129V175.553Z" fill="black"/>
<path d="M129.692 175.553H126.551V178.694H129.692V175.553Z" fill="black"/>
<path d="M132.832 175.553H129.692V178.694H132.832V175.553Z" fill="black"/>
<path d="M135.973 175.553H132.832V178.694H135.973V175.553Z" fill="black"/>
<path d="M139.113 175.553H135.973V178.694H139.113V175.553Z" fill="black"/>
<path d="M142.254 175.553H139.113V178.694H142.254V175.553Z" fill="black"/>
<path d="M151.675 175.553H148.535V178.694H151.675V175.553Z" fill="black"/>
<path d="M154.816 175.553H151.675V178.694H154.816V175.553Z" fill="black"/>
<path d="M79.4431 178.694H76.3025V181.835H79.4431V178.694Z" fill="black"/>
<path d="M92.0052 178.694H88.8647V181.835H92.0052V178.694Z" fill="black"/>
<path d="M98.2862 178.694H95.1457V181.835H98.2862V178.694Z" fill="black"/>
<path d="M101.427 178.694H98.2862V181.835H101.427V178.694Z" fill="black"/>
<path d="M107.708 178.694H104.567V181.835H107.708V178.694Z" fill="black"/>
<path d="M113.989 178.694H110.848V181.835H113.989V178.694Z" fill="black"/>
<path d="M117.129 178.694H113.989V181.835H117.129V178.694Z" fill="black"/>
<path d="M120.27 178.694H117.129V181.835H120.27V178.694Z" fill="black"/>
<path d="M123.41 178.694H120.27V181.835H123.41V178.694Z" fill="black"/>
<path d="M126.551 178.694H123.41V181.835H126.551V178.694Z" fill="black"/>
<path d="M129.692 178.694H126.551V181.835H129.692V178.694Z" fill="black"/>
<path d="M142.254 178.694H139.113V181.835H142.254V178.694Z" fill="black"/>
<path d="M151.675 178.694H148.535V181.835H151.675V178.694Z" fill="black"/>
<path d="M54.3188 181.835H51.1783V184.975H54.3188V181.835Z" fill="black"/>
<path d="M57.4594 181.835H54.3188V184.975H57.4594V181.835Z" fill="black"/>
<path d="M60.5999 181.835H57.4594V184.975H60.5999V181.835Z" fill="black"/>
<path d="M63.7404 181.835H60.5999V184.975H63.7404V181.835Z" fill="black"/>
<path d="M66.881 181.835H63.7404V184.975H66.881V181.835Z" fill="black"/>
<path d="M70.0215 181.835H66.881V184.975H70.0215V181.835Z" fill="black"/>
<path d="M73.162 181.835H70.0215V184.975H73.162V181.835Z" fill="black"/>
<path d="M82.5836 181.835H79.4431V184.975H82.5836V181.835Z" fill="black"/>
<path d="M85.7241 181.835H82.5836V184.975H85.7241V181.835Z" fill="black"/>
<path d="M92.0052 181.835H88.8647V184.975H92.0052V181.835Z" fill="black"/>
<path d="M95.1457 181.835H92.0052V184.975H95.1457V181.835Z" fill="black"/>
<path d="M104.567 181.835H101.427V184.975H104.567V181.835Z" fill="black"/>
<path d="M120.27 181.835H117.129V184.975H120.27V181.835Z" fill="black"/>
<path d="M126.551 181.835H123.41V184.975H126.551V181.835Z" fill="black"/>
<path d="M129.692 181.835H126.551V184.975H129.692V181.835Z" fill="black"/>
<path d="M135.973 181.835H132.832V184.975H135.973V181.835Z" fill="black"/>
<path d="M142.254 181.835H139.113V184.975H142.254V181.835Z" fill="black"/>
<path d="M145.394 181.835H142.254V184.975H145.394V181.835Z" fill="black"/>
<path d="M151.675 181.835H148.535V184.975H151.675V181.835Z" fill="black"/>
<path d="M154.816 181.835H151.675V184.975H154.816V181.835Z" fill="black"/>
<path d="M54.3188 184.975H51.1783V188.116H54.3188V184.975Z" fill="black"/>
<path d="M73.162 184.975H70.0215V188.116H73.162V184.975Z" fill="black"/>
<path d="M79.4431 184.975H76.3025V188.116H79.4431V184.975Z" fill="black"/>
<path d="M88.8647 184.975H85.7241V188.116H88.8647V184.975Z" fill="black"/>
<path d="M92.0052 184.975H88.8647V188.116H92.0052V184.975Z" fill="black"/>
<path d="M101.427 184.975H98.2862V188.116H101.427V184.975Z" fill="black"/>
<path d="M107.708 184.975H104.567V188.116H107.708V184.975Z" fill="black"/>
<path d="M120.27 184.975H117.129V188.116H120.27V184.975Z" fill="black"/>
<path d="M123.41 184.975H120.27V188.116H123.41V184.975Z" fill="black"/>
<path d="M126.551 184.975H123.41V188.116H126.551V184.975Z" fill="black"/>
<path d="M129.692 184.975H126.551V188.116H129.692V184.975Z" fill="black"/>
<path d="M142.254 184.975H139.113V188.116H142.254V184.975Z" fill="black"/>
<path d="M145.394 184.975H142.254V188.116H145.394V184.975Z" fill="black"/>
<path d="M154.816 184.975H151.675V188.116H154.816V184.975Z" fill="black"/>
<path d="M54.3188 188.116H51.1783V191.256H54.3188V188.116Z" fill="black"/>
<path d="M60.5999 188.116H57.4594V191.256H60.5999V188.116Z" fill="black"/>
<path d="M63.7404 188.116H60.5999V191.256H63.7404V188.116Z" fill="black"/>
<path d="M66.881 188.116H63.7404V191.256H66.881V188.116Z" fill="black"/>
<path d="M73.162 188.116H70.0215V191.256H73.162V188.116Z" fill="black"/>
<path d="M95.1457 188.116H92.0052V191.256H95.1457V188.116Z" fill="black"/>
<path d="M98.2862 188.116H95.1457V191.256H98.2862V188.116Z" fill="black"/>
<path d="M104.567 188.116H101.427V191.256H104.567V188.116Z" fill="black"/>
<path d="M110.848 188.116H107.708V191.256H110.848V188.116Z" fill="black"/>
<path d="M123.41 188.116H120.27V191.256H123.41V188.116Z" fill="black"/>
<path d="M126.551 188.116H123.41V191.256H126.551V188.116Z" fill="black"/>
<path d="M129.692 188.116H126.551V191.256H129.692V188.116Z" fill="black"/>
<path d="M132.832 188.116H129.692V191.256H132.832V188.116Z" fill="black"/>
<path d="M135.973 188.116H132.832V191.256H135.973V188.116Z" fill="black"/>
<path d="M139.113 188.116H135.973V191.256H139.113V188.116Z" fill="black"/>
<path d="M142.254 188.116H139.113V191.256H142.254V188.116Z" fill="black"/>
<path d="M145.394 188.116H142.254V191.256H145.394V188.116Z" fill="black"/>
<path d="M148.535 188.116H145.394V191.256H148.535V188.116Z" fill="black"/>
<path d="M54.3188 191.256H51.1783V194.397H54.3188V191.256Z" fill="black"/>
<path d="M60.5999 191.256H57.4594V194.397H60.5999V191.256Z" fill="black"/>
<path d="M63.7404 191.256H60.5999V194.397H63.7404V191.256Z" fill="black"/>
<path d="M66.881 191.256H63.7404V194.397H66.881V191.256Z" fill="black"/>
<path d="M73.162 191.256H70.0215V194.397H73.162V191.256Z" fill="black"/>
<path d="M85.7241 191.256H82.5836V194.397H85.7241V191.256Z" fill="black"/>
<path d="M88.8647 191.256H85.7241V194.397H88.8647V191.256Z" fill="black"/>
<path d="M107.708 191.256H104.567V194.397H107.708V191.256Z" fill="black"/>
<path d="M117.129 191.256H113.989V194.397H117.129V191.256Z" fill="black"/>
<path d="M120.27 191.256H117.129V194.397H120.27V191.256Z" fill="black"/>
<path d="M123.41 191.256H120.27V194.397H123.41V191.256Z" fill="black"/>
<path d="M126.551 191.256H123.41V194.397H126.551V191.256Z" fill="black"/>
<path d="M135.973 191.256H132.832V194.397H135.973V191.256Z" fill="black"/>
<path d="M145.394 191.256H142.254V194.397H145.394V191.256Z" fill="black"/>
<path d="M154.816 191.256H151.675V194.397H154.816V191.256Z" fill="black"/>
<path d="M54.3188 194.397H51.1783V197.537H54.3188V194.397Z" fill="black"/>
<path d="M60.5999 194.397H57.4594V197.537H60.5999V194.397Z" fill="black"/>
<path d="M63.7404 194.397H60.5999V197.537H63.7404V194.397Z" fill="black"/>
<path d="M66.881 194.397H63.7404V197.537H66.881V194.397Z" fill="black"/>
<path d="M73.162 194.397H70.0215V197.537H73.162V194.397Z" fill="black"/>
<path d="M85.7241 194.397H82.5836V197.537H85.7241V194.397Z" fill="black"/>
<path d="M107.708 194.397H104.567V197.537H107.708V194.397Z" fill="black"/>
<path d="M110.848 194.397H107.708V197.537H110.848V194.397Z" fill="black"/>
<path d="M120.27 194.397H117.129V197.537H120.27V194.397Z" fill="black"/>
<path d="M123.41 194.397H120.27V197.537H123.41V194.397Z" fill="black"/>
<path d="M132.832 194.397H129.692V197.537H132.832V194.397Z" fill="black"/>
<path d="M135.973 194.397H132.832V197.537H135.973V194.397Z" fill="black"/>
<path d="M145.394 194.397H142.254V197.537H145.394V194.397Z" fill="black"/>
<path d="M54.3188 197.537H51.1783V200.678H54.3188V197.537Z" fill="black"/>
<path d="M73.162 197.537H70.0215V200.678H73.162V197.537Z" fill="black"/>
<path d="M88.8647 197.537H85.7241V200.678H88.8647V197.537Z" fill="black"/>
<path d="M98.2862 197.537H95.1457V200.678H98.2862V197.537Z" fill="black"/>
<path d="M101.427 197.537H98.2862V200.678H101.427V197.537Z" fill="black"/>
<path d="M104.567 197.537H101.427V200.678H104.567V197.537Z" fill="black"/>
<path d="M107.708 197.537H104.567V200.678H107.708V197.537Z" fill="black"/>
<path d="M120.27 197.537H117.129V200.678H120.27V197.537Z" fill="black"/>
<path d="M145.394 197.537H142.254V200.678H145.394V197.537Z" fill="black"/>
<path d="M154.816 197.537H151.675V200.678H154.816V197.537Z" fill="black"/>
<path d="M54.3188 200.678H51.1783V203.818H54.3188V200.678Z" fill="black"/>
<path d="M57.4594 200.678H54.3188V203.818H57.4594V200.678Z" fill="black"/>
<path d="M60.5999 200.678H57.4594V203.818H60.5999V200.678Z" fill="black"/>
<path d="M63.7404 200.678H60.5999V203.818H63.7404V200.678Z" fill="black"/>
<path d="M66.881 200.678H63.7404V203.818H66.881V200.678Z" fill="black"/>
<path d="M70.0215 200.678H66.881V203.818H70.0215V200.678Z" fill="black"/>
<path d="M73.162 200.678H70.0215V203.818H73.162V200.678Z" fill="black"/>
<path d="M82.5836 200.678H79.4431V203.818H82.5836V200.678Z" fill="black"/>
<path d="M85.7241 200.678H82.5836V203.818H85.7241V200.678Z" fill="black"/>
<path d="M95.1457 200.678H92.0052V203.818H95.1457V200.678Z" fill="black"/>
<path d="M110.848 200.678H107.708V203.818H110.848V200.678Z" fill="black"/>
<path d="M123.41 200.678H120.27V203.818H123.41V200.678Z" fill="black"/>
<path d="M132.832 200.678H129.692V203.818H132.832V200.678Z" fill="black"/>
<path d="M139.113 200.678H135.973V203.818H139.113V200.678Z" fill="black"/>
<path d="M142.254 200.678H139.113V203.818H142.254V200.678Z" fill="black"/>
<path d="M148.535 200.678H145.394V203.818H148.535V200.678Z" fill="black"/>
</g>
<path opacity="0.196" fill-rule="evenodd" clip-rule="evenodd" d="M42.828 103.18L42.8278 103.179C42.8273 103.175 42.8264 103.169 42.8252 103.16C42.8227 103.142 42.8189 103.113 42.8143 103.073C42.805 102.994 42.7926 102.873 42.7812 102.716C42.7586 102.403 42.7405 101.95 42.761 101.403C42.8023 100.306 42.9982 98.8634 43.6013 97.4359C44.2005 96.018 45.2002 94.615 46.8657 93.5592C48.535 92.501 50.9359 91.7519 54.4004 91.7519H70.7801V90.0001H54.4004C50.6824 90.0001 47.9373 90.8057 45.9277 92.0796C43.9143 93.356 42.7024 95.0625 41.9876 96.7541C41.2769 98.4361 41.0568 100.103 41.0104 101.338C40.9871 101.958 41.0074 102.476 41.034 102.843C41.0473 103.027 41.0622 103.173 41.0742 103.276C41.0788 103.315 41.083 103.348 41.0864 103.375V118.222H42.8383V103.247L42.8282 103.182L42.8282 103.181L42.828 103.18Z" fill="black"/>
<path opacity="0.196" fill-rule="evenodd" clip-rule="evenodd" d="M41.0861 199.499V184.652H42.8379V199.627L42.8279 199.693L42.8278 199.693L42.8276 199.694L42.8274 199.695C42.827 199.699 42.8261 199.705 42.8248 199.714C42.8224 199.732 42.8186 199.761 42.8139 199.801C42.8047 199.88 42.7922 200.001 42.7809 200.158C42.7582 200.471 42.7402 200.924 42.7607 201.471C42.8019 202.568 42.9978 204.011 43.601 205.438C44.2001 206.856 45.1999 208.259 46.8653 209.315C48.5346 210.373 50.9356 211.122 54.4001 211.122H70.7798V212.874H54.4001C50.6821 212.874 47.937 212.068 45.9274 210.794C43.914 209.518 42.702 207.812 41.9873 206.12C41.2766 204.438 41.0564 202.771 41.0101 201.536C40.9868 200.916 41.0071 200.398 41.0337 200.031C41.047 199.848 41.0619 199.701 41.0739 199.598C41.0785 199.559 41.0826 199.526 41.0861 199.499Z" fill="black"/>
<path opacity="0.196" fill-rule="evenodd" clip-rule="evenodd" d="M134.021 90H150.401C154.119 90 156.864 90.8057 158.874 92.0796C160.887 93.3559 162.099 95.0625 162.814 96.754C163.525 98.436 163.745 100.103 163.791 101.338C163.814 101.958 163.794 102.476 163.768 102.843C163.754 103.026 163.739 103.173 163.727 103.276C163.723 103.315 163.719 103.348 163.715 103.375V118.222H161.963V103.247L161.973 103.181L161.973 103.181L161.973 103.181L161.974 103.18L161.974 103.179C161.974 103.175 161.975 103.169 161.976 103.16C161.979 103.142 161.983 103.113 161.987 103.073C161.997 102.994 162.009 102.873 162.02 102.716C162.043 102.403 162.061 101.95 162.041 101.403C161.999 100.306 161.803 98.8634 161.2 97.4359C160.601 96.0179 159.601 94.615 157.936 93.5592C156.267 92.5009 153.866 91.7518 150.401 91.7518H134.021V90Z" fill="black"/>
<path opacity="0.196" fill-rule="evenodd" clip-rule="evenodd" d="M161.963 184.652H163.715V199.499C163.719 199.526 163.723 199.559 163.727 199.598C163.739 199.701 163.754 199.848 163.768 200.031C163.794 200.398 163.814 200.916 163.791 201.536C163.745 202.771 163.525 204.438 162.814 206.12C162.099 207.812 160.887 209.518 158.874 210.794C156.864 212.068 154.119 212.874 150.401 212.874H134.021V211.122H150.401C153.866 211.122 156.267 210.373 157.936 209.315C159.601 208.259 160.601 206.856 161.2 205.438C161.803 204.011 161.999 202.568 162.041 201.471C162.061 200.924 162.043 200.471 162.02 200.158C162.009 200.001 161.997 199.88 161.987 199.801C161.983 199.761 161.979 199.732 161.976 199.714C161.975 199.705 161.974 199.699 161.974 199.695L161.974 199.694L161.973 199.693L161.973 199.693L161.973 199.693L161.963 199.627V184.652Z" fill="black"/>
<path opacity="0.5" d="M62.0184 289L62.9144 283.36H63.4504L64.9464 287.448L67.7624 283.36H68.3304L67.4344 289H66.8344L67.5304 284.592L65.0904 288.128H64.6584L63.3224 284.552L62.6184 289H62.0184ZM70.4782 289.072C69.9235 289.072 69.4835 288.92 69.1582 288.616C68.8328 288.307 68.6702 287.885 68.6702 287.352C68.6702 286.931 68.7555 286.547 68.9262 286.2C69.0968 285.848 69.3368 285.568 69.6462 285.36C69.9555 285.147 70.3235 285.04 70.7502 285.04C71.1555 285.04 71.4755 285.133 71.7102 285.32C71.9502 285.507 72.1128 285.752 72.1982 286.056C72.2835 286.355 72.3022 286.677 72.2542 287.024L72.2302 287.192H69.3022C69.2648 287.608 69.3528 287.939 69.5662 288.184C69.7795 288.429 70.0942 288.552 70.5102 288.552C70.7555 288.552 70.9822 288.517 71.1902 288.448C71.4035 288.373 71.5982 288.259 71.7742 288.104L71.9902 288.544C71.8088 288.715 71.5822 288.845 71.3102 288.936C71.0382 289.027 70.7608 289.072 70.4782 289.072ZM70.7422 285.52C70.4595 285.52 70.2248 285.581 70.0382 285.704C69.8515 285.821 69.7022 285.976 69.5902 286.168C69.4835 286.36 69.4088 286.56 69.3662 286.768H71.7342C71.7662 286.416 71.7048 286.12 71.5502 285.88C71.4008 285.64 71.1315 285.52 70.7422 285.52ZM72.752 289L73.376 285.112H74.008L73.896 285.776C74.04 285.536 74.2213 285.355 74.44 285.232C74.664 285.104 74.9066 285.04 75.168 285.04C75.4506 285.04 75.6853 285.109 75.872 285.248C76.0586 285.387 76.184 285.589 76.248 285.856C76.3866 285.595 76.5733 285.395 76.808 285.256C77.048 285.112 77.3253 285.04 77.64 285.04C78.0453 285.04 78.352 285.171 78.56 285.432C78.7733 285.688 78.8373 286.093 78.752 286.648L78.376 289H77.728L78.104 286.616C78.2106 285.917 77.992 285.568 77.448 285.568C77.1226 285.568 76.8533 285.685 76.64 285.92C76.4266 286.155 76.288 286.477 76.224 286.888L75.888 289H75.24L75.616 286.616C75.728 285.917 75.512 285.568 74.968 285.568C74.6426 285.568 74.3733 285.685 74.16 285.92C73.9466 286.155 73.8053 286.477 73.736 286.888L73.4 289H72.752ZM81.5155 289.072C81.2222 289.072 80.9555 289.003 80.7155 288.864C80.4809 288.72 80.3129 288.504 80.2115 288.216L80.0915 289H79.4515L80.3475 283.36H80.9955L80.6195 285.728C80.7689 285.515 80.9582 285.347 81.1875 285.224C81.4169 285.101 81.6755 285.04 81.9635 285.04C82.4169 285.04 82.7795 285.189 83.0515 285.488C83.3289 285.787 83.4675 286.192 83.4675 286.704C83.4675 287.131 83.3902 287.525 83.2355 287.888C83.0862 288.245 82.8649 288.533 82.5715 288.752C82.2835 288.965 81.9315 289.072 81.5155 289.072ZM81.4355 288.552C81.7342 288.552 81.9849 288.469 82.1875 288.304C82.3902 288.139 82.5449 287.92 82.6515 287.648C82.7582 287.371 82.8115 287.064 82.8115 286.728C82.8115 286.344 82.7182 286.053 82.5315 285.856C82.3449 285.659 82.0889 285.56 81.7635 285.56C81.4649 285.56 81.2142 285.643 81.0115 285.808C80.8089 285.968 80.6542 286.187 80.5475 286.464C80.4409 286.741 80.3875 287.048 80.3875 287.384C80.3875 287.763 80.4809 288.053 80.6675 288.256C80.8542 288.453 81.1102 288.552 81.4355 288.552ZM85.8436 289.072C85.2889 289.072 84.8489 288.92 84.5236 288.616C84.1983 288.307 84.0356 287.885 84.0356 287.352C84.0356 286.931 84.1209 286.547 84.2916 286.2C84.4623 285.848 84.7023 285.568 85.0116 285.36C85.3209 285.147 85.6889 285.04 86.1156 285.04C86.5209 285.04 86.8409 285.133 87.0756 285.32C87.3156 285.507 87.4783 285.752 87.5636 286.056C87.6489 286.355 87.6676 286.677 87.6196 287.024L87.5956 287.192H84.6676C84.6303 287.608 84.7183 287.939 84.9316 288.184C85.1449 288.429 85.4596 288.552 85.8756 288.552C86.1209 288.552 86.3476 288.517 86.5556 288.448C86.7689 288.373 86.9636 288.259 87.1396 288.104L87.3556 288.544C87.1743 288.715 86.9476 288.845 86.6756 288.936C86.4036 289.027 86.1263 289.072 85.8436 289.072ZM86.1076 285.52C85.8249 285.52 85.5903 285.581 85.4036 285.704C85.2169 285.821 85.0676 285.976 84.9556 286.168C84.8489 286.36 84.7743 286.56 84.7316 286.768H87.0996C87.1316 286.416 87.0703 286.12 86.9156 285.88C86.7663 285.64 86.4969 285.52 86.1076 285.52ZM88.1014 289L88.7254 285.112H89.3574L89.2534 285.76C89.3707 285.552 89.5334 285.387 89.7414 285.264C89.9547 285.136 90.2134 285.059 90.5174 285.032L90.8294 285.008L90.8374 285.568L90.3894 285.608C89.9627 285.651 89.6534 285.779 89.4614 285.992C89.2747 286.205 89.1521 286.493 89.0934 286.856L88.7574 289H88.1014ZM94.4953 289.072C93.9726 289.072 93.5593 288.92 93.2553 288.616C92.9566 288.307 92.8073 287.888 92.8073 287.36C92.8073 286.923 92.8926 286.528 93.0633 286.176C93.234 285.824 93.4713 285.547 93.7753 285.344C94.0846 285.141 94.4473 285.04 94.8633 285.04C95.386 285.04 95.7966 285.195 96.0953 285.504C96.394 285.808 96.5433 286.224 96.5433 286.752C96.5433 287.189 96.458 287.584 96.2873 287.936C96.122 288.283 95.8846 288.56 95.5753 288.768C95.266 288.971 94.906 289.072 94.4953 289.072ZM94.5193 288.552C94.8126 288.552 95.0606 288.469 95.2633 288.304C95.4713 288.139 95.626 287.92 95.7273 287.648C95.834 287.371 95.8873 287.064 95.8873 286.728C95.8873 286.344 95.794 286.053 95.6073 285.856C95.426 285.659 95.17 285.56 94.8393 285.56C94.546 285.56 94.2953 285.643 94.0873 285.808C93.8846 285.968 93.73 286.187 93.6233 286.464C93.5166 286.741 93.4633 287.048 93.4633 287.384C93.4633 287.763 93.5566 288.053 93.7433 288.256C93.93 288.453 94.1886 288.552 94.5193 288.552ZM97.2375 289L97.7735 285.616H97.0135L97.0935 285.112H97.8455L97.8935 284.808C97.9629 284.371 98.1389 284.024 98.4215 283.768C98.7042 283.512 99.0989 283.373 99.6055 283.352L100.006 283.336V283.832L99.6215 283.856C99.2962 283.883 99.0455 283.973 98.8695 284.128C98.6989 284.283 98.5895 284.515 98.5415 284.824L98.4935 285.112H99.6135L99.5335 285.616H98.4215L97.8855 289H97.2375Z" fill="black"/>
<path d="M134.054 285.254V288.013H131.294C131.011 288.013 130.799 287.783 130.799 287.518V285.254C130.799 284.971 131.029 284.759 131.294 284.759H133.541C133.841 284.759 134.054 284.971 134.054 285.254Z" fill="#E1232E"/>
<path d="M146.982 286.369H145.603C145.603 284.724 144.259 283.38 142.614 283.38C141.305 283.38 140.155 284.228 139.766 285.467C139.678 285.767 139.625 286.068 139.625 286.369V290.755H139.589C138.847 290.755 138.245 290.153 138.245 289.411V286.369H138.263C138.263 285.166 138.758 284.016 139.642 283.185C140.456 282.424 141.517 282 142.631 282C145.037 282 146.982 283.963 146.982 286.369Z" fill="#E1232E"/>
<path d="M147 290.755L145.055 290.772L144.577 290.295L143.516 289.234L142.048 287.766H143.993L147 290.755Z" fill="#E1232E"/>
<path d="M134.513 289.393H130.357C129.844 289.393 129.437 288.986 129.437 288.473V284.299C129.437 283.786 129.844 283.38 130.357 283.38H134.513C135.026 283.38 135.433 283.786 135.433 284.299V288.456L136.813 289.835V283.344C136.813 282.601 136.211 282 135.469 282H129.402C128.659 282 128.058 282.601 128.058 283.344V289.411C128.058 290.153 128.659 290.755 129.402 290.755H135.893L134.513 289.393Z" fill="#E1232E"/>
<path d="M117.623 290.772H115.677L111.609 286.687V290.772H110V282H111.609V285.909L115.5 282H117.428L113.184 286.209L117.623 290.772Z" fill="#E1232E"/>
<path d="M124.892 282H126.466V290.772H124.892V286.952H120.4V290.755H118.826V282H120.4V285.661H124.892V282Z" fill="#E1232E"/>
<defs>
<clipPath id="clip0_369_824">
<rect width="103.725" height="103.725" fill="white" transform="translate(51.1342 100.137)"/>
</clipPath>
</defs>
</svg>
